<?xml version="1.0" standalone="no"?>
 <!DOCTYPE svg PUBLIC "-//W3C//DTD SVG 1.1//EN" 
 "http://www.w3.org/Graphics/SVG/1.1/DTD/svg11.dtd"> 
<svg
  xmlns:svg="http://www.w3.org/2000/svg"
  xmlns="http://www.w3.org/2000/svg"
  xmlns:xlink="http://www.w3.org/1999/xlink"
  version="1.1"
  width="29.700220cm" height="21.000720cm" viewBox="0 0 116930 82680">
<title>SVG Picture created as micodox back-PTH-drl_map.svg date 2020/08/19 19:31:59 </title>
  <desc>Picture generated by PCBNEW </desc>
<g style="fill:#000000; fill-opacity:1;stroke:#000000; stroke-opacity:1;
stroke-linecap:round; stroke-linejoin:round;"
 transform="translate(0 0) scale(1 1)">
</g>
<g style="fill:#000000; fill-opacity:0.0; 
stroke:#000000; stroke-width:-0.000393701; stroke-opacity:1; 
stroke-linecap:round; stroke-linejoin:round;">
</g>
<g style="fill:#000000; fill-opacity:0.0; 
stroke:#000000; stroke-width:59.0551; stroke-opacity:1; 
stroke-linecap:round; stroke-linejoin:round;">
<path d="M65994 58139
L46136 55703
" />
<path d="M30354.3 55236.2 A468.75 468.75 0.0 0 0 30823.1 55705" />
<path d="M65905.5 58129.9 A1133.04 1133.04 0.0 0 0 67115 57428.7" />
<path d="M46136 55703
L30823 55704
" />
<path d="M69758 52603
L67047 57559
" />
<path d="M69758 50241
L69758 52603
" />
<path d="M68206 42703
L69758 50241
" />
<path d="M65196 23250
L62685 21374
" />
<path d="M52540 21375
L62692 21375
" />
<path d="M38243 21375
L52540 21375
" />
<path d="M68206 23719
L68206 42703
" />
<path d="M65196 23250
L67755 23250
" />
<path d="M30351 24656
L30354 55236
" />
<path d="M37306 24187
L30820 24187
" />
<path d="M37774 21844
L37774 23719
" />
<path d="M37306.2 24188 A468.75 468.75 0.0 0 0 37775 23719.2" />
<path d="M38243.7 21375.5 A468.75 468.75 0.0 0 0 37775 21844.2" />
<path d="M30820.6 24188 A468.75 468.75 0.0 0 0 30351.9 24656.7" />
<path d="M68206.2 23719.2 A468.75 468.75 0.0 0 0 67737.5 23250.5" />
</g>
<g style="fill:#000000; fill-opacity:0.0; 
stroke:#000000; stroke-width:78.7402; stroke-opacity:1; 
stroke-linecap:round; stroke-linejoin:round;">
<path d="M35511 46259
L36377 47125
" />
<path d="M36377 46259
L35511 47125
" />
<path d="M61948 22303
L62814 23169
" />
<path d="M62814 22303
L61948 23169
" />
<path d="M63716 56377
L64582 57244
" />
<path d="M64582 56377
L63716 57244
" />
<path d="M52618 45216
L53484 46082
" />
<path d="M53484 45216
L52618 46082
" />
<path d="M38421 22039
L39287 22905
" />
<path d="M39287 22039
L38421 22905
" />
</g>
<g style="fill:#000000; fill-opacity:0.0; 
stroke:#000000; stroke-width:118.11; stroke-opacity:1; 
stroke-linecap:round; stroke-linejoin:round;">
<text x="31109.7" y="60060.2"
textLength="8661.42" font-size="1574.8" lengthAdjust="spacingAndGlyphs"
text-anchor="start" opacity="0">Drill Map:</text>
<path d="M31450 60003
L31450 58822
L31731 58822
L31899 58879
L32012 58991
L32068 59104
L32124 59329
L32124 59497
L32068 59722
L32012 59835
L31899 59947
L31731 60003
L31450 60003
" />
<path d="M32631 60003
L32631 59216
" />
<path d="M32631 59441
L32687 59329
L32743 59272
L32856 59216
L32968 59216
" />
<path d="M33362 60003
L33362 59216
" />
<path d="M33362 58822
L33306 58879
L33362 58935
L33418 58879
L33362 58822
L33362 58935
" />
<path d="M34093 60003
L33980 59947
L33924 59835
L33924 58822
" />
<path d="M34712 60003
L34599 59947
L34543 59835
L34543 58822
" />
<path d="M36061 60003
L36061 58822
L36455 59666
L36849 58822
L36849 60003
" />
<path d="M37917 60003
L37917 59385
L37861 59272
L37749 59216
L37524 59216
L37411 59272
" />
<path d="M37917 59947
L37805 60003
L37524 60003
L37411 59947
L37355 59835
L37355 59722
L37411 59610
L37524 59554
L37805 59554
L37917 59497
" />
<path d="M38480 59216
L38480 60397
" />
<path d="M38480 59272
L38592 59216
L38817 59216
L38930 59272
L38986 59329
L39042 59441
L39042 59778
L38986 59891
L38930 59947
L38817 60003
L38592 60003
L38480 59947
" />
<path d="M39549 59891
L39605 59947
L39549 60003
L39492 59947
L39549 59891
L39549 60003
" />
<path d="M39549 59272
L39605 59329
L39549 59385
L39492 59329
L39549 59272
L39549 59385
" />
<path d="M29456 61516
L30322 62383
" />
<path d="M30322 61516
L29456 62383
" />
<text x="31109.7" y="62540.5"
textLength="25427.4" font-size="1574.8" lengthAdjust="spacingAndGlyphs"
text-anchor="start" opacity="0">2.20mm / 0.087" (5 holes)</text>
<path d="M31393 61415
L31450 61359
L31562 61303
L31843 61303
L31956 61359
L32012 61415
L32068 61528
L32068 61640
L32012 61809
L31337 62484
L32068 62484
" />
<path d="M32574 62371
L32631 62428
L32574 62484
L32518 62428
L32574 62371
L32574 62484
" />
<path d="M33081 61415
L33137 61359
L33249 61303
L33531 61303
L33643 61359
L33699 61415
L33755 61528
L33755 61640
L33699 61809
L33024 62484
L33755 62484
" />
<path d="M34487 61303
L34599 61303
L34712 61359
L34768 61415
L34824 61528
L34880 61753
L34880 62034
L34824 62259
L34768 62371
L34712 62428
L34599 62484
L34487 62484
L34374 62428
L34318 62371
L34262 62259
L34205 62034
L34205 61753
L34262 61528
L34318 61415
L34374 61359
L34487 61303
" />
<path d="M35387 62484
L35387 61696
" />
<path d="M35387 61809
L35443 61753
L35555 61696
L35724 61696
L35836 61753
L35893 61865
L35893 62484
" />
<path d="M35893 61865
L35949 61753
L36061 61696
L36230 61696
L36343 61753
L36399 61865
L36399 62484
" />
<path d="M36961 62484
L36961 61696
" />
<path d="M36961 61809
L37018 61753
L37130 61696
L37299 61696
L37411 61753
L37468 61865
L37468 62484
" />
<path d="M37468 61865
L37524 61753
L37636 61696
L37805 61696
L37917 61753
L37974 61865
L37974 62484
" />
<path d="M40280 61246
L39267 62765
" />
<path d="M41798 61303
L41911 61303
L42023 61359
L42079 61415
L42136 61528
L42192 61753
L42192 62034
L42136 62259
L42079 62371
L42023 62428
L41911 62484
L41798 62484
L41686 62428
L41629 62371
L41573 62259
L41517 62034
L41517 61753
L41573 61528
L41629 61415
L41686 61359
L41798 61303
" />
<path d="M42698 62371
L42754 62428
L42698 62484
L42642 62428
L42698 62371
L42698 62484
" />
<path d="M43486 61303
L43598 61303
L43710 61359
L43767 61415
L43823 61528
L43879 61753
L43879 62034
L43823 62259
L43767 62371
L43710 62428
L43598 62484
L43486 62484
L43373 62428
L43317 62371
L43261 62259
L43204 62034
L43204 61753
L43261 61528
L43317 61415
L43373 61359
L43486 61303
" />
<path d="M44554 61809
L44442 61753
L44385 61696
L44329 61584
L44329 61528
L44385 61415
L44442 61359
L44554 61303
L44779 61303
L44892 61359
L44948 61415
L45004 61528
L45004 61584
L44948 61696
L44892 61753
L44779 61809
L44554 61809
L44442 61865
L44385 61921
L44329 62034
L44329 62259
L44385 62371
L44442 62428
L44554 62484
L44779 62484
L44892 62428
L44948 62371
L45004 62259
L45004 62034
L44948 61921
L44892 61865
L44779 61809
" />
<path d="M45398 61303
L46185 61303
L45679 62484
" />
<path d="M46579 61303
L46579 61528
" />
<path d="M47029 61303
L47029 61528
" />
<path d="M48772 62934
L48716 62877
L48604 62709
L48547 62596
L48491 62428
L48435 62146
L48435 61921
L48491 61640
L48547 61471
L48604 61359
L48716 61190
L48772 61134
" />
<path d="M49785 61303
L49222 61303
L49166 61865
L49222 61809
L49335 61753
L49616 61753
L49728 61809
L49785 61865
L49841 61978
L49841 62259
L49785 62371
L49728 62428
L49616 62484
L49335 62484
L49222 62428
L49166 62371
" />
<path d="M51247 62484
L51247 61303
" />
<path d="M51753 62484
L51753 61865
L51697 61753
L51584 61696
L51416 61696
L51303 61753
L51247 61809
" />
<path d="M52484 62484
L52372 62428
L52316 62371
L52259 62259
L52259 61921
L52316 61809
L52372 61753
L52484 61696
L52653 61696
L52766 61753
L52822 61809
L52878 61921
L52878 62259
L52822 62371
L52766 62428
L52653 62484
L52484 62484
" />
<path d="M53553 62484
L53441 62428
L53384 62315
L53384 61303
" />
<path d="M54453 62428
L54340 62484
L54115 62484
L54003 62428
L53947 62315
L53947 61865
L54003 61753
L54115 61696
L54340 61696
L54453 61753
L54509 61865
L54509 61978
L53947 62090
" />
<path d="M54959 62428
L55072 62484
L55297 62484
L55409 62428
L55465 62315
L55465 62259
L55409 62146
L55297 62090
L55128 62090
L55015 62034
L54959 61921
L54959 61865
L55015 61753
L55128 61696
L55297 61696
L55409 61753
" />
<path d="M55859 62934
L55915 62877
L56028 62709
L56084 62596
L56140 62428
L56196 62146
L56196 61921
L56140 61640
L56084 61471
L56028 61359
L55915 61190
L55859 61134
" />
</g> 
</svg>
