  0
SECTION
  2
HEADER
  9
$ACADVER
  1
AC1014
  9
$HANDSEED
  5
FFFF
  9
$MEASUREMENT
 70
     1
  0
ENDSEC
  0
SECTION
  2
TABLES
  0
TABLE
  2
VPORT
  5
8
330
0
100
AcDbSymbolTable
 70
     4
  0
VPORT
  5
2E
330
8
100
AcDbSymbolTableRecord
100
AcDbViewportTableRecord
  2
*ACTIVE
 70
     0
 10
0.0
 20
0.0
 11
1.0
 21
1.0
 12
210.0
 22
148.5
 13
0.0
 23
0.0
 14
10.0
 24
10.0
 15
10.0
 25
10.0
 16
0.0
 26
0.0
 36
1.0
 17
0.0
 27
0.0
 37
0.0
 40
341.0
 41
1.24
 42
50.0
 43
0.0
 44
0.0
 50
0.0
 51
0.0
 71
     0
 72
   100
 73
     1
 74
     3
 75
     0
 76
     0
 77
     0
 78
     0
  0
ENDTAB
  0
TABLE
  2
LTYPE
  5
5
330
0
100
AcDbSymbolTable
 70
     1
  0
LTYPE
  5
14
330
5
100
AcDbSymbolTableRecord
100
AcDbLinetypeTableRecord
  2
BYBLOCK
 70
     0
  3

 72
    65
 73
     0
 40
0.0
  0
LTYPE
  5
15
330
5
100
AcDbSymbolTableRecord
100
AcDbLinetypeTableRecord
  2
BYLAYER
 70
     0
  3

 72
    65
 73
     0
 40
0.0
  0
LTYPE
  5
16
330
5
100
AcDbSymbolTableRecord
100
AcDbLinetypeTableRecord
  2
CONTINUOUS
 70
     0
  3
Solid line
 72
    65
 73
     0
 40
0.0
  0
ENDTAB
  0
TABLE
  2
LAYER
  5
2
100
AcDbSymbolTable
 70
1
  0
LAYER
  5
50
100
AcDbSymbolTableRecord
100
AcDbLayerTableRecord
  2
0
 70
0
  6
CONTINUOUS
  0
ENDTAB
  0
TABLE
  2
STYLE
  5
3
330
0
100
AcDbSymbolTable
 70
     1
  0
STYLE
  5
11
330
3
100
AcDbSymbolTableRecord
100
AcDbTextStyleTableRecord
  2
STANDARD
 70
     0
 40
0.0
 41
1.0
 50
0.0
 71
     0
 42
2.5
  3
txt
  4

  0
ENDTAB
  0
TABLE
  2
VIEW
  5
6
330
0
100
AcDbSymbolTable
 70
     0
  0
ENDTAB
  0
TABLE
  2
UCS
  5
7
330
0
100
AcDbSymbolTable
 70
     0
  0
ENDTAB
  0
TABLE
  2
APPID
  5
9
330
0
100
AcDbSymbolTable
 70
     2
  0
APPID
  5
12
330
9
100
AcDbSymbolTableRecord
100
AcDbRegAppTableRecord
  2
ACAD
 70
     0
  0
ENDTAB
  0
TABLE
  2
DIMSTYLE
  5
A
330
0
100
AcDbSymbolTable
 70
     1
  0
DIMSTYLE
105
27
330
A
100
AcDbSymbolTableRecord
100
AcDbDimStyleTableRecord
  2
ISO-25
 70
     0
  3

  4

  5

  6

  7

 40
1.0
 41
2.5
 42
0.625
 43
3.75
 44
1.25
 45
0.0
 46
0.0
 47
0.0
 48
0.0
140
2.5
141
2.5
142
0.0
143
0.03937007874016
144
1.0
145
0.0
146
1.0
147
0.625
 71
     0
 72
     0
 73
     0
 74
     0
 75
     0
 76
     0
 77
     1
 78
     8
170
     0
171
     3
172
     1
173
     0
174
     0
175
     0
176
     0
177
     0
178
     0
270
     2
271
     2
272
     2
273
     2
274
     3
340
11
275
     0
280
     0
281
     0
282
     0
283
     0
284
     8
285
     0
286
     0
287
     3
288
     0
  0
ENDTAB
  0
TABLE
  2
BLOCK_RECORD
  5
1
330
0
100
AcDbSymbolTable
 70
     1
  0
BLOCK_RECORD
  5
1F
330
1
100
AcDbSymbolTableRecord
100
AcDbBlockTableRecord
  2
*MODEL_SPACE
  0
BLOCK_RECORD
  5
1B
330
1
100
AcDbSymbolTableRecord
100
AcDbBlockTableRecord
  2
*PAPER_SPACE
  0
ENDTAB
  0
ENDSEC
  0
SECTION
  2
BLOCKS
  0
BLOCK
  5
20
330
1F
100
AcDbEntity
  8
0
100
AcDbBlockBegin
  2
*MODEL_SPACE
 70
     0
 10
0.0
 20
0.0
 30
0.0
  3
*MODEL_SPACE
  1

  0
ENDBLK
  5
21
330
1F
100
AcDbEntity
  8
0
100
AcDbBlockEnd
  0
BLOCK
  5
1C
330
1B
100
AcDbEntity
 67
     1
  8
0
100
AcDbBlockBegin
  2
*PAPER_SPACE
  1

  0
ENDBLK
  5
1D
330
1B
100
AcDbEntity
 67
     1
  8
0
100
AcDbBlockEnd
  0
ENDSEC
  0
SECTION
  2
ENTITIES
  0
SPLINE
  5
100
100
AcDbEntity
  8
0
 62
7
100
AcDbSpline
 70
8
 71
3
 72
8
 73
4
 74
0
 40
0
 40
0
 40
0
 40
0
 40
1
 40
1
 40
1
 40
1
 10
77.099918
 20
-138.283872
 30
0.0
 10
77.099885
 20
-138.599690
 30
0.0
 10
77.225328
 20
-138.902582
 30
0.0
 10
77.448644
 20
-139.125898
 30
0.0
  0
SPLINE
  5
101
100
AcDbEntity
  8
0
 62
7
100
AcDbSpline
 70
8
 71
3
 72
8
 73
4
 74
0
 40
0
 40
0
 40
0
 40
0
 40
1
 40
1
 40
1
 40
1
 10
77.448644
 20
-139.125898
 30
0.0
 10
77.671961
 20
-139.349215
 30
0.0
 10
77.974853
 20
-139.474658
 30
0.0
 10
78.290670
 20
-139.474624
 30
0.0
  0
SPLINE
  5
102
100
AcDbEntity
  8
0
 62
7
100
AcDbSpline
 70
8
 71
3
 72
8
 73
4
 74
0
 40
0
 40
0
 40
0
 40
0
 40
1
 40
1
 40
1
 40
1
 10
167.399962
 20
-145.633870
 30
0.0
 10
168.711877
 20
-145.818039
 30
0.0
 10
169.980038
 20
-145.082831
 30
0.0
 10
170.472092
 20
-143.852822
 30
0.0
  0
LWPOLYLINE
  5
103
100
AcDbEntity
  8
0
 62
7
100
AcDbPolyline
 90
3
 70
0
 10
167.624752
 20
-145.656984
 30
0.0
 10
117.185434
 20
-139.469544
 30
0.0
 10
78.290416
 20
-139.472084
 30
0.0
  0
LWPOLYLINE
  5
104
100
AcDbEntity
  8
0
 62
7
100
AcDbPolyline
 90
2
 70
0
 10
177.185312
 20
-131.595545
 30
0.0
 10
170.299372
 20
-144.183784
 30
0.0
  0
LWPOLYLINE
  5
105
100
AcDbEntity
  8
0
 62
7
100
AcDbPolyline
 90
2
 70
0
 10
177.185312
 20
-125.596065
 30
0.0
 10
177.185312
 20
-131.595545
 30
0.0
  0
LWPOLYLINE
  5
106
100
AcDbEntity
  8
0
 62
7
100
AcDbPolyline
 90
2
 70
0
 10
173.243232
 20
-106.449546
 30
0.0
 10
177.185312
 20
-125.596065
 30
0.0
  0
LWPOLYLINE
  5
107
100
AcDbEntity
  8
0
 62
7
100
AcDbPolyline
 90
2
 70
0
 10
165.597832
 20
-57.038928
 30
0.0
 10
159.219892
 20
-52.273888
 30
0.0
  0
LWPOLYLINE
  5
108
100
AcDbEntity
  8
0
 62
7
100
AcDbPolyline
 90
2
 70
0
 10
133.451594
 20
-52.276428
 30
0.0
 10
159.237672
 20
-52.276428
 30
0.0
  0
LWPOLYLINE
  5
109
100
AcDbEntity
  8
0
 62
7
100
AcDbPolyline
 90
2
 70
0
 10
97.137215
 20
-52.276428
 30
0.0
 10
133.451594
 20
-52.276428
 30
0.0
  0
LWPOLYLINE
  5
10a
100
AcDbEntity
  8
0
 62
7
100
AcDbPolyline
 90
2
 70
0
 10
173.243232
 20
-58.230188
 30
0.0
 10
173.243232
 20
-106.449546
 30
0.0
  0
LWPOLYLINE
  5
10b
100
AcDbEntity
  8
0
 62
7
100
AcDbPolyline
 90
2
 70
0
 10
165.597832
 20
-57.038928
 30
0.0
 10
172.097692
 20
-57.038928
 30
0.0
  0
LWPOLYLINE
  5
10c
100
AcDbEntity
  8
0
 62
7
100
AcDbPolyline
 90
2
 70
0
 10
77.091536
 20
-60.610168
 30
0.0
 10
77.099156
 20
-138.283364
 30
0.0
  0
LWPOLYLINE
  5
10d
100
AcDbEntity
  8
0
 62
7
100
AcDbPolyline
 90
2
 70
0
 10
94.757235
 20
-59.418908
 30
0.0
 10
78.282796
 20
-59.418908
 30
0.0
  0
SPLINE
  5
10e
100
AcDbEntity
  8
0
 62
7
100
AcDbSpline
 70
8
 71
3
 72
8
 73
4
 74
0
 40
0
 40
0
 40
0
 40
0
 40
1
 40
1
 40
1
 40
1
 10
94.757743
 20
-59.421448
 30
0.0
 10
95.073561
 20
-59.421482
 30
0.0
 10
95.376453
 20
-59.296039
 30
0.0
 10
95.599769
 20
-59.072722
 30
0.0
  0
SPLINE
  5
10f
100
AcDbEntity
  8
0
 62
7
100
AcDbSpline
 70
8
 71
3
 72
8
 73
4
 74
0
 40
0
 40
0
 40
0
 40
0
 40
1
 40
1
 40
1
 40
1
 10
95.599769
 20
-59.072722
 30
0.0
 10
95.823086
 20
-58.849406
 30
0.0
 10
95.948529
 20
-58.546514
 30
0.0
 10
95.948495
 20
-58.230696
 30
0.0
  0
SPLINE
  5
110
100
AcDbEntity
  8
0
 62
7
100
AcDbSpline
 70
8
 71
3
 72
8
 73
4
 74
0
 40
0
 40
0
 40
0
 40
0
 40
1
 40
1
 40
1
 40
1
 10
97.138993
 20
-52.277698
 30
0.0
 10
96.481529
 20
-52.277769
 30
0.0
 10
95.948566
 20
-52.810732
 30
0.0
 10
95.948495
 20
-53.468196
 30
0.0
  0
SPLINE
  5
111
100
AcDbEntity
  8
0
 62
7
100
AcDbSpline
 70
8
 71
3
 72
8
 73
4
 74
0
 40
0
 40
0
 40
0
 40
0
 40
1
 40
1
 40
1
 40
1
 10
78.284320
 20
-59.421448
 30
0.0
 10
77.626855
 20
-59.421518
 30
0.0
 10
77.093892
 20
-59.954481
 30
0.0
 10
77.093822
 20
-60.611946
 30
0.0
  0
SPLINE
  5
112
100
AcDbEntity
  8
0
 62
7
100
AcDbSpline
 70
8
 71
3
 72
8
 73
4
 74
0
 40
0
 40
0
 40
0
 40
0
 40
1
 40
1
 40
1
 40
1
 10
173.243740
 20
-58.230696
 30
0.0
 10
173.243670
 20
-57.573231
 30
0.0
 10
172.710707
 20
-57.040268
 30
0.0
 10
172.053242
 20
-57.040198
 30
0.0
  0
LWPOLYLINE
  5
113
100
AcDbEntity
  8
0
 62
7
100
AcDbPolyline
 90
2
 70
0
 10
95.945955
 20
-53.467688
 30
0.0
 10
95.945955
 20
-58.230188
 30
0.0
  0
LWPOLYLINE
  5
114
100
AcDbEntity
  8
0
 62
7
100
AcDbPolyline
 90
2
 70
0
 10
90.197936
 20
-115.481785
 30
0.0
 10
92.397576
 20
-117.681425
 30
0.0
  0
LWPOLYLINE
  5
115
100
AcDbEntity
  8
0
 62
7
100
AcDbPolyline
 90
2
 70
0
 10
92.397576
 20
-115.481785
 30
0.0
 10
90.197936
 20
-117.681425
 30
0.0
  0
LWPOLYLINE
  5
116
100
AcDbEntity
  8
0
 62
7
100
AcDbPolyline
 90
2
 70
0
 10
157.347913
 20
-54.633548
 30
0.0
 10
159.547552
 20
-56.833188
 30
0.0
  0
LWPOLYLINE
  5
117
100
AcDbEntity
  8
0
 62
7
100
AcDbPolyline
 90
2
 70
0
 10
159.547552
 20
-54.633548
 30
0.0
 10
157.347913
 20
-56.833188
 30
0.0
  0
LWPOLYLINE
  5
118
100
AcDbEntity
  8
0
 62
7
100
AcDbPolyline
 90
2
 70
0
 10
161.838632
 20
-141.181504
 30
0.0
 10
164.038272
 20
-143.383684
 30
0.0
  0
LWPOLYLINE
  5
119
100
AcDbEntity
  8
0
 62
7
100
AcDbPolyline
 90
2
 70
0
 10
164.038272
 20
-141.181504
 30
0.0
 10
161.838632
 20
-143.383684
 30
0.0
  0
LWPOLYLINE
  5
11a
100
AcDbEntity
  8
0
 62
7
100
AcDbPolyline
 90
2
 70
0
 10
133.649714
 20
-112.832566
 30
0.0
 10
135.849354
 20
-115.032206
 30
0.0
  0
LWPOLYLINE
  5
11b
100
AcDbEntity
  8
0
 62
7
100
AcDbPolyline
 90
2
 70
0
 10
135.849354
 20
-112.832566
 30
0.0
 10
133.649714
 20
-115.032206
 30
0.0
  0
LWPOLYLINE
  5
11c
100
AcDbEntity
  8
0
 62
7
100
AcDbPolyline
 90
2
 70
0
 10
97.589335
 20
-53.962988
 30
0.0
 10
99.788975
 20
-56.162628
 30
0.0
  0
LWPOLYLINE
  5
11d
100
AcDbEntity
  8
0
 62
7
100
AcDbPolyline
 90
2
 70
0
 10
99.788975
 20
-53.962988
 30
0.0
 10
97.589335
 20
-56.162628
 30
0.0
  0
LWPOLYLINE
  5
11e
100
AcDbEntity
  8
0
 62
7
100
AcDbPolyline
 90
12
 70
1
 10
79.882996
 20
-150.391544
 30
0.0
 10
79.882996
 20
-147.391804
 30
0.0
 10
80.596736
 20
-147.391804
 30
0.0
 10
81.023456
 20
-147.536584
 30
0.0
 10
81.310476
 20
-147.821064
 30
0.0
 10
81.452716
 20
-148.108084
 30
0.0
 10
81.594956
 20
-148.679584
 30
0.0
 10
81.594956
 20
-149.106304
 30
0.0
 10
81.452716
 20
-149.677804
 30
0.0
 10
81.310476
 20
-149.964824
 30
0.0
 10
81.023456
 20
-150.249304
 30
0.0
 10
80.596736
 20
-150.391544
 30
0.0
  0
LWPOLYLINE
  5
11f
100
AcDbEntity
  8
0
 62
7
100
AcDbPolyline
 90
2
 70
0
 10
82.882736
 20
-150.391544
 30
0.0
 10
82.882736
 20
-148.392564
 30
0.0
  0
LWPOLYLINE
  5
120
100
AcDbEntity
  8
0
 62
7
100
AcDbPolyline
 90
5
 70
0
 10
82.882736
 20
-148.964064
 30
0.0
 10
83.024976
 20
-148.679584
 30
0.0
 10
83.167216
 20
-148.534804
 30
0.0
 10
83.454236
 20
-148.392564
 30
0.0
 10
83.738716
 20
-148.392564
 30
0.0
  0
LWPOLYLINE
  5
121
100
AcDbEntity
  8
0
 62
7
100
AcDbPolyline
 90
2
 70
0
 10
84.739476
 20
-150.391544
 30
0.0
 10
84.739476
 20
-148.392564
 30
0.0
  0
LWPOLYLINE
  5
122
100
AcDbEntity
  8
0
 62
7
100
AcDbPolyline
 90
6
 70
0
 10
84.739476
 20
-147.391804
 30
0.0
 10
84.597236
 20
-147.536584
 30
0.0
 10
84.739476
 20
-147.678824
 30
0.0
 10
84.881716
 20
-147.536584
 30
0.0
 10
84.739476
 20
-147.391804
 30
0.0
 10
84.739476
 20
-147.678824
 30
0.0
  0
LWPOLYLINE
  5
123
100
AcDbEntity
  8
0
 62
7
100
AcDbPolyline
 90
4
 70
0
 10
86.596216
 20
-150.391544
 30
0.0
 10
86.309196
 20
-150.249304
 30
0.0
 10
86.166956
 20
-149.964824
 30
0.0
 10
86.166956
 20
-147.391804
 30
0.0
  0
LWPOLYLINE
  5
124
100
AcDbEntity
  8
0
 62
7
100
AcDbPolyline
 90
4
 70
0
 10
88.168476
 20
-150.391544
 30
0.0
 10
87.881456
 20
-150.249304
 30
0.0
 10
87.739216
 20
-149.964824
 30
0.0
 10
87.739216
 20
-147.391804
 30
0.0
  0
LWPOLYLINE
  5
125
100
AcDbEntity
  8
0
 62
7
100
AcDbPolyline
 90
5
 70
0
 10
91.594936
 20
-150.391544
 30
0.0
 10
91.594936
 20
-147.391804
 30
0.0
 10
92.595696
 20
-149.535564
 30
0.0
 10
93.596456
 20
-147.391804
 30
0.0
 10
93.596456
 20
-150.391544
 30
0.0
  0
LWPOLYLINE
  5
126
100
AcDbEntity
  8
0
 62
7
100
AcDbPolyline
 90
6
 70
0
 10
96.309175
 20
-150.391544
 30
0.0
 10
96.309175
 20
-148.821824
 30
0.0
 10
96.166935
 20
-148.534804
 30
0.0
 10
95.882455
 20
-148.392564
 30
0.0
 10
95.310955
 20
-148.392564
 30
0.0
 10
95.023935
 20
-148.534804
 30
0.0
  0
LWPOLYLINE
  5
127
100
AcDbEntity
  8
0
 62
7
100
AcDbPolyline
 90
10
 70
0
 10
96.309175
 20
-150.249304
 30
0.0
 10
96.024695
 20
-150.391544
 30
0.0
 10
95.310955
 20
-150.391544
 30
0.0
 10
95.023935
 20
-150.249304
 30
0.0
 10
94.881695
 20
-149.964824
 30
0.0
 10
94.881695
 20
-149.677804
 30
0.0
 10
95.023935
 20
-149.393324
 30
0.0
 10
95.310955
 20
-149.251084
 30
0.0
 10
96.024695
 20
-149.251084
 30
0.0
 10
96.309175
 20
-149.106304
 30
0.0
  0
LWPOLYLINE
  5
128
100
AcDbEntity
  8
0
 62
7
100
AcDbPolyline
 90
2
 70
0
 10
97.739195
 20
-148.392564
 30
0.0
 10
97.739195
 20
-151.392304
 30
0.0
  0
LWPOLYLINE
  5
129
100
AcDbEntity
  8
0
 62
7
100
AcDbPolyline
 90
12
 70
0
 10
97.739195
 20
-148.534804
 30
0.0
 10
98.023675
 20
-148.392564
 30
0.0
 10
98.595175
 20
-148.392564
 30
0.0
 10
98.882195
 20
-148.534804
 30
0.0
 10
99.024435
 20
-148.679584
 30
0.0
 10
99.166675
 20
-148.964064
 30
0.0
 10
99.166675
 20
-149.820044
 30
0.0
 10
99.024435
 20
-150.107064
 30
0.0
 10
98.882195
 20
-150.249304
 30
0.0
 10
98.595175
 20
-150.391544
 30
0.0
 10
98.023675
 20
-150.391544
 30
0.0
 10
97.739195
 20
-150.249304
 30
0.0
  0
LWPOLYLINE
  5
12a
100
AcDbEntity
  8
0
 62
7
100
AcDbPolyline
 90
6
 70
0
 10
100.454455
 20
-150.107064
 30
0.0
 10
100.596695
 20
-150.249304
 30
0.0
 10
100.454455
 20
-150.391544
 30
0.0
 10
100.309675
 20
-150.249304
 30
0.0
 10
100.454455
 20
-150.107064
 30
0.0
 10
100.454455
 20
-150.391544
 30
0.0
  0
LWPOLYLINE
  5
12b
100
AcDbEntity
  8
0
 62
7
100
AcDbPolyline
 90
6
 70
0
 10
100.454455
 20
-148.534804
 30
0.0
 10
100.596695
 20
-148.679584
 30
0.0
 10
100.454455
 20
-148.821824
 30
0.0
 10
100.309675
 20
-148.679584
 30
0.0
 10
100.454455
 20
-148.534804
 30
0.0
 10
100.454455
 20
-148.821824
 30
0.0
  0
LWPOLYLINE
  5
12c
100
AcDbEntity
  8
0
 62
7
100
AcDbPolyline
 90
2
 70
0
 10
74.818236
 20
-154.234564
 30
0.0
 10
77.017876
 20
-156.436744
 30
0.0
  0
LWPOLYLINE
  5
12d
100
AcDbEntity
  8
0
 62
7
100
AcDbPolyline
 90
2
 70
0
 10
77.017876
 20
-154.234564
 30
0.0
 10
74.818236
 20
-156.436744
 30
0.0
  0
LWPOLYLINE
  5
12e
100
AcDbEntity
  8
0
 62
7
100
AcDbPolyline
 90
11
 70
0
 10
79.738216
 20
-153.978024
 30
0.0
 10
79.882996
 20
-153.835784
 30
0.0
 10
80.167476
 20
-153.693544
 30
0.0
 10
80.881216
 20
-153.693544
 30
0.0
 10
81.168236
 20
-153.835784
 30
0.0
 10
81.310476
 20
-153.978024
 30
0.0
 10
81.452716
 20
-154.265044
 30
0.0
 10
81.452716
 20
-154.549524
 30
0.0
 10
81.310476
 20
-154.978784
 30
0.0
 10
79.595976
 20
-156.693284
 30
0.0
 10
81.452716
 20
-156.693284
 30
0.0
  0
LWPOLYLINE
  5
12f
100
AcDbEntity
  8
0
 62
7
100
AcDbPolyline
 90
6
 70
0
 10
82.737956
 20
-156.406264
 30
0.0
 10
82.882736
 20
-156.551044
 30
0.0
 10
82.737956
 20
-156.693284
 30
0.0
 10
82.595716
 20
-156.551044
 30
0.0
 10
82.737956
 20
-156.406264
 30
0.0
 10
82.737956
 20
-156.693284
 30
0.0
  0
LWPOLYLINE
  5
130
100
AcDbEntity
  8
0
 62
7
100
AcDbPolyline
 90
11
 70
0
 10
84.025736
 20
-153.978024
 30
0.0
 10
84.167976
 20
-153.835784
 30
0.0
 10
84.452456
 20
-153.693544
 30
0.0
 10
85.168736
 20
-153.693544
 30
0.0
 10
85.453216
 20
-153.835784
 30
0.0
 10
85.595456
 20
-153.978024
 30
0.0
 10
85.737696
 20
-154.265044
 30
0.0
 10
85.737696
 20
-154.549524
 30
0.0
 10
85.595456
 20
-154.978784
 30
0.0
 10
83.880956
 20
-156.693284
 30
0.0
 10
85.737696
 20
-156.693284
 30
0.0
  0
LWPOLYLINE
  5
131
100
AcDbEntity
  8
0
 62
7
100
AcDbPolyline
 90
20
 70
1
 10
87.596976
 20
-153.693544
 30
0.0
 10
87.881456
 20
-153.693544
 30
0.0
 10
88.168476
 20
-153.835784
 30
0.0
 10
88.310716
 20
-153.978024
 30
0.0
 10
88.452956
 20
-154.265044
 30
0.0
 10
88.595196
 20
-154.836544
 30
0.0
 10
88.595196
 20
-155.550284
 30
0.0
 10
88.452956
 20
-156.121784
 30
0.0
 10
88.310716
 20
-156.406264
 30
0.0
 10
88.168476
 20
-156.551044
 30
0.0
 10
87.881456
 20
-156.693284
 30
0.0
 10
87.596976
 20
-156.693284
 30
0.0
 10
87.309956
 20
-156.551044
 30
0.0
 10
87.167716
 20
-156.406264
 30
0.0
 10
87.025476
 20
-156.121784
 30
0.0
 10
86.880696
 20
-155.550284
 30
0.0
 10
86.880696
 20
-154.836544
 30
0.0
 10
87.025476
 20
-154.265044
 30
0.0
 10
87.167716
 20
-153.978024
 30
0.0
 10
87.309956
 20
-153.835784
 30
0.0
  0
LWPOLYLINE
  5
132
100
AcDbEntity
  8
0
 62
7
100
AcDbPolyline
 90
2
 70
0
 10
89.882976
 20
-156.693284
 30
0.0
 10
89.882976
 20
-154.691764
 30
0.0
  0
LWPOLYLINE
  5
133
100
AcDbEntity
  8
0
 62
7
100
AcDbPolyline
 90
7
 70
0
 10
89.882976
 20
-154.978784
 30
0.0
 10
90.025216
 20
-154.836544
 30
0.0
 10
90.309696
 20
-154.691764
 30
0.0
 10
90.738956
 20
-154.691764
 30
0.0
 10
91.023436
 20
-154.836544
 30
0.0
 10
91.168216
 20
-155.121024
 30
0.0
 10
91.168216
 20
-156.693284
 30
0.0
  0
LWPOLYLINE
  5
134
100
AcDbEntity
  8
0
 62
7
100
AcDbPolyline
 90
7
 70
0
 10
91.168216
 20
-155.121024
 30
0.0
 10
91.310456
 20
-154.836544
 30
0.0
 10
91.594936
 20
-154.691764
 30
0.0
 10
92.024196
 20
-154.691764
 30
0.0
 10
92.311216
 20
-154.836544
 30
0.0
 10
92.453456
 20
-155.121024
 30
0.0
 10
92.453456
 20
-156.693284
 30
0.0
  0
LWPOLYLINE
  5
135
100
AcDbEntity
  8
0
 62
7
100
AcDbPolyline
 90
2
 70
0
 10
93.880936
 20
-156.693284
 30
0.0
 10
93.880936
 20
-154.691764
 30
0.0
  0
LWPOLYLINE
  5
136
100
AcDbEntity
  8
0
 62
7
100
AcDbPolyline
 90
7
 70
0
 10
93.880936
 20
-154.978784
 30
0.0
 10
94.025716
 20
-154.836544
 30
0.0
 10
94.310196
 20
-154.691764
 30
0.0
 10
94.739455
 20
-154.691764
 30
0.0
 10
95.023935
 20
-154.836544
 30
0.0
 10
95.168715
 20
-155.121024
 30
0.0
 10
95.168715
 20
-156.693284
 30
0.0
  0
LWPOLYLINE
  5
137
100
AcDbEntity
  8
0
 62
7
100
AcDbPolyline
 90
7
 70
0
 10
95.168715
 20
-155.121024
 30
0.0
 10
95.310955
 20
-154.836544
 30
0.0
 10
95.595435
 20
-154.691764
 30
0.0
 10
96.024695
 20
-154.691764
 30
0.0
 10
96.309175
 20
-154.836544
 30
0.0
 10
96.453955
 20
-155.121024
 30
0.0
 10
96.453955
 20
-156.693284
 30
0.0
  0
LWPOLYLINE
  5
138
100
AcDbEntity
  8
0
 62
7
100
AcDbPolyline
 90
2
 70
0
 10
102.311195
 20
-153.548764
 30
0.0
 10
99.738175
 20
-157.407023
 30
0.0
  0
LWPOLYLINE
  5
139
100
AcDbEntity
  8
0
 62
7
100
AcDbPolyline
 90
20
 70
1
 10
106.166915
 20
-153.693544
 30
0.0
 10
106.453935
 20
-153.693544
 30
0.0
 10
106.738415
 20
-153.835784
 30
0.0
 10
106.880655
 20
-153.978024
 30
0.0
 10
107.025435
 20
-154.265044
 30
0.0
 10
107.167675
 20
-154.836544
 30
0.0
 10
107.167675
 20
-155.550284
 30
0.0
 10
107.025435
 20
-156.121784
 30
0.0
 10
106.880655
 20
-156.406264
 30
0.0
 10
106.738415
 20
-156.551044
 30
0.0
 10
106.453935
 20
-156.693284
 30
0.0
 10
106.166915
 20
-156.693284
 30
0.0
 10
105.882435
 20
-156.551044
 30
0.0
 10
105.737655
 20
-156.406264
 30
0.0
 10
105.595415
 20
-156.121784
 30
0.0
 10
105.453175
 20
-155.550284
 30
0.0
 10
105.453175
 20
-154.836544
 30
0.0
 10
105.595415
 20
-154.265044
 30
0.0
 10
105.737655
 20
-153.978024
 30
0.0
 10
105.882435
 20
-153.835784
 30
0.0
  0
LWPOLYLINE
  5
13a
100
AcDbEntity
  8
0
 62
7
100
AcDbPolyline
 90
6
 70
0
 10
108.452915
 20
-156.406264
 30
0.0
 10
108.595155
 20
-156.551044
 30
0.0
 10
108.452915
 20
-156.693284
 30
0.0
 10
108.310675
 20
-156.551044
 30
0.0
 10
108.452915
 20
-156.406264
 30
0.0
 10
108.452915
 20
-156.693284
 30
0.0
  0
LWPOLYLINE
  5
13b
100
AcDbEntity
  8
0
 62
7
100
AcDbPolyline
 90
20
 70
1
 10
110.454435
 20
-153.693544
 30
0.0
 10
110.738915
 20
-153.693544
 30
0.0
 10
111.023395
 20
-153.835784
 30
0.0
 10
111.168175
 20
-153.978024
 30
0.0
 10
111.310415
 20
-154.265044
 30
0.0
 10
111.452655
 20
-154.836544
 30
0.0
 10
111.452655
 20
-155.550284
 30
0.0
 10
111.310415
 20
-156.121784
 30
0.0
 10
111.168175
 20
-156.406264
 30
0.0
 10
111.023395
 20
-156.551044
 30
0.0
 10
110.738915
 20
-156.693284
 30
0.0
 10
110.454435
 20
-156.693284
 30
0.0
 10
110.167415
 20
-156.551044
 30
0.0
 10
110.025175
 20
-156.406264
 30
0.0
 10
109.882935
 20
-156.121784
 30
0.0
 10
109.738155
 20
-155.550284
 30
0.0
 10
109.738155
 20
-154.836544
 30
0.0
 10
109.882935
 20
-154.265044
 30
0.0
 10
110.025175
 20
-153.978024
 30
0.0
 10
110.167415
 20
-153.835784
 30
0.0
  0
LWPOLYLINE
  5
13c
100
AcDbEntity
  8
0
 62
7
100
AcDbPolyline
 90
32
 70
0
 10
113.167155
 20
-154.978784
 30
0.0
 10
112.882675
 20
-154.836544
 30
0.0
 10
112.737895
 20
-154.691764
 30
0.0
 10
112.595655
 20
-154.407284
 30
0.0
 10
112.595655
 20
-154.265044
 30
0.0
 10
112.737895
 20
-153.978024
 30
0.0
 10
112.882675
 20
-153.835784
 30
0.0
 10
113.167155
 20
-153.693544
 30
0.0
 10
113.738655
 20
-153.693544
 30
0.0
 10
114.025675
 20
-153.835784
 30
0.0
 10
114.167915
 20
-153.978024
 30
0.0
 10
114.310155
 20
-154.265044
 30
0.0
 10
114.310155
 20
-154.407284
 30
0.0
 10
114.167915
 20
-154.691764
 30
0.0
 10
114.025675
 20
-154.836544
 30
0.0
 10
113.738655
 20
-154.978784
 30
0.0
 10
113.167155
 20
-154.978784
 30
0.0
 10
112.882675
 20
-155.121024
 30
0.0
 10
112.737895
 20
-155.263264
 30
0.0
 10
112.595655
 20
-155.550284
 30
0.0
 10
112.595655
 20
-156.121784
 30
0.0
 10
112.737895
 20
-156.406264
 30
0.0
 10
112.882675
 20
-156.551044
 30
0.0
 10
113.167155
 20
-156.693284
 30
0.0
 10
113.738655
 20
-156.693284
 30
0.0
 10
114.025675
 20
-156.551044
 30
0.0
 10
114.167915
 20
-156.406264
 30
0.0
 10
114.310155
 20
-156.121784
 30
0.0
 10
114.310155
 20
-155.550284
 30
0.0
 10
114.167915
 20
-155.263264
 30
0.0
 10
114.025675
 20
-155.121024
 30
0.0
 10
113.738655
 20
-154.978784
 30
0.0
  0
LWPOLYLINE
  5
13d
100
AcDbEntity
  8
0
 62
7
100
AcDbPolyline
 90
3
 70
0
 10
115.310915
 20
-153.693544
 30
0.0
 10
117.309894
 20
-153.693544
 30
0.0
 10
116.024654
 20
-156.693284
 30
0.0
  0
LWPOLYLINE
  5
13e
100
AcDbEntity
  8
0
 62
7
100
AcDbPolyline
 90
2
 70
0
 10
118.310654
 20
-153.693544
 30
0.0
 10
118.310654
 20
-154.265044
 30
0.0
  0
LWPOLYLINE
  5
13f
100
AcDbEntity
  8
0
 62
7
100
AcDbPolyline
 90
2
 70
0
 10
119.453654
 20
-153.693544
 30
0.0
 10
119.453654
 20
-154.265044
 30
0.0
  0
LWPOLYLINE
  5
140
100
AcDbEntity
  8
0
 62
7
100
AcDbPolyline
 90
12
 70
0
 10
123.880874
 20
-157.836283
 30
0.0
 10
123.738634
 20
-157.691503
 30
0.0
 10
123.454154
 20
-157.264783
 30
0.0
 10
123.309374
 20
-156.977764
 30
0.0
 10
123.167134
 20
-156.551044
 30
0.0
 10
123.024894
 20
-155.834764
 30
0.0
 10
123.024894
 20
-155.263264
 30
0.0
 10
123.167134
 20
-154.549524
 30
0.0
 10
123.309374
 20
-154.120264
 30
0.0
 10
123.454154
 20
-153.835784
 30
0.0
 10
123.738634
 20
-153.406524
 30
0.0
 10
123.880874
 20
-153.264284
 30
0.0
  0
LWPOLYLINE
  5
141
100
AcDbEntity
  8
0
 62
7
100
AcDbPolyline
 90
16
 70
0
 10
126.453894
 20
-153.693544
 30
0.0
 10
125.023874
 20
-153.693544
 30
0.0
 10
124.881634
 20
-155.121024
 30
0.0
 10
125.023874
 20
-154.978784
 30
0.0
 10
125.310894
 20
-154.836544
 30
0.0
 10
126.024634
 20
-154.836544
 30
0.0
 10
126.309114
 20
-154.978784
 30
0.0
 10
126.453894
 20
-155.121024
 30
0.0
 10
126.596134
 20
-155.408044
 30
0.0
 10
126.596134
 20
-156.121784
 30
0.0
 10
126.453894
 20
-156.406264
 30
0.0
 10
126.309114
 20
-156.551044
 30
0.0
 10
126.024634
 20
-156.693284
 30
0.0
 10
125.310894
 20
-156.693284
 30
0.0
 10
125.023874
 20
-156.551044
 30
0.0
 10
124.881634
 20
-156.406264
 30
0.0
  0
LWPOLYLINE
  5
142
100
AcDbEntity
  8
0
 62
7
100
AcDbPolyline
 90
2
 70
0
 10
130.167374
 20
-156.693284
 30
0.0
 10
130.167374
 20
-153.693544
 30
0.0
  0
LWPOLYLINE
  5
143
100
AcDbEntity
  8
0
 62
7
100
AcDbPolyline
 90
7
 70
0
 10
131.452614
 20
-156.693284
 30
0.0
 10
131.452614
 20
-155.121024
 30
0.0
 10
131.310374
 20
-154.836544
 30
0.0
 10
131.023354
 20
-154.691764
 30
0.0
 10
130.596634
 20
-154.691764
 30
0.0
 10
130.309614
 20
-154.836544
 30
0.0
 10
130.167374
 20
-154.978784
 30
0.0
  0
LWPOLYLINE
  5
144
100
AcDbEntity
  8
0
 62
7
100
AcDbPolyline
 90
16
 70
1
 10
133.309354
 20
-156.693284
 30
0.0
 10
133.024874
 20
-156.551044
 30
0.0
 10
132.882634
 20
-156.406264
 30
0.0
 10
132.737854
 20
-156.121784
 30
0.0
 10
132.737854
 20
-155.263264
 30
0.0
 10
132.882634
 20
-154.978784
 30
0.0
 10
133.024874
 20
-154.836544
 30
0.0
 10
133.309354
 20
-154.691764
 30
0.0
 10
133.738614
 20
-154.691764
 30
0.0
 10
134.025634
 20
-154.836544
 30
0.0
 10
134.167874
 20
-154.978784
 30
0.0
 10
134.310114
 20
-155.263264
 30
0.0
 10
134.310114
 20
-156.121784
 30
0.0
 10
134.167874
 20
-156.406264
 30
0.0
 10
134.025634
 20
-156.551044
 30
0.0
 10
133.738614
 20
-156.693284
 30
0.0
  0
LWPOLYLINE
  5
145
100
AcDbEntity
  8
0
 62
7
100
AcDbPolyline
 90
4
 70
0
 10
136.024614
 20
-156.693284
 30
0.0
 10
135.740134
 20
-156.551044
 30
0.0
 10
135.595354
 20
-156.264024
 30
0.0
 10
135.595354
 20
-153.693544
 30
0.0
  0
LWPOLYLINE
  5
146
100
AcDbEntity
  8
0
 62
7
100
AcDbPolyline
 90
13
 70
0
 10
138.310613
 20
-156.551044
 30
0.0
 10
138.023593
 20
-156.693284
 30
0.0
 10
137.452093
 20
-156.693284
 30
0.0
 10
137.167613
 20
-156.551044
 30
0.0
 10
137.025373
 20
-156.264024
 30
0.0
 10
137.025373
 20
-155.121024
 30
0.0
 10
137.167613
 20
-154.836544
 30
0.0
 10
137.452093
 20
-154.691764
 30
0.0
 10
138.023593
 20
-154.691764
 30
0.0
 10
138.310613
 20
-154.836544
 30
0.0
 10
138.452853
 20
-155.121024
 30
0.0
 10
138.452853
 20
-155.408044
 30
0.0
 10
137.025373
 20
-155.692524
 30
0.0
  0
LWPOLYLINE
  5
147
100
AcDbEntity
  8
0
 62
7
100
AcDbPolyline
 90
16
 70
0
 10
139.595853
 20
-156.551044
 30
0.0
 10
139.882873
 20
-156.693284
 30
0.0
 10
140.454373
 20
-156.693284
 30
0.0
 10
140.738853
 20
-156.551044
 30
0.0
 10
140.881093
 20
-156.264024
 30
0.0
 10
140.881093
 20
-156.121784
 30
0.0
 10
140.738853
 20
-155.834764
 30
0.0
 10
140.454373
 20
-155.692524
 30
0.0
 10
140.025113
 20
-155.692524
 30
0.0
 10
139.738093
 20
-155.550284
 30
0.0
 10
139.595853
 20
-155.263264
 30
0.0
 10
139.595853
 20
-155.121024
 30
0.0
 10
139.738093
 20
-154.836544
 30
0.0
 10
140.025113
 20
-154.691764
 30
0.0
 10
140.454373
 20
-154.691764
 30
0.0
 10
140.738853
 20
-154.836544
 30
0.0
  0
LWPOLYLINE
  5
148
100
AcDbEntity
  8
0
 62
7
100
AcDbPolyline
 90
12
 70
0
 10
141.881853
 20
-157.836283
 30
0.0
 10
142.024093
 20
-157.691503
 30
0.0
 10
142.311113
 20
-157.264783
 30
0.0
 10
142.453353
 20
-156.977764
 30
0.0
 10
142.595593
 20
-156.551044
 30
0.0
 10
142.737833
 20
-155.834764
 30
0.0
 10
142.737833
 20
-155.263264
 30
0.0
 10
142.595593
 20
-154.549524
 30
0.0
 10
142.453353
 20
-154.120264
 30
0.0
 10
142.311113
 20
-153.835784
 30
0.0
 10
142.024093
 20
-153.406524
 30
0.0
 10
141.881853
 20
-153.264284
 30
0.0
  0
ENDSEC
  0
SECTION
  2
OBJECTS
  0
DICTIONARY
  5
C
330
0
100
AcDbDictionary
  3
ACAD_GROUP
350
D
  3
ACAD_MLINESTYLE
350
17
  0
DICTIONARY
  5
D
330
C
100
AcDbDictionary
  0
DICTIONARY
  5
1A
330
C
100
AcDbDictionary
  0
DICTIONARY
  5
17
330
C
100
AcDbDictionary
  3
STANDARD
350
18
  0
DICTIONARY
  5
19
330
C
100
AcDbDictionary
  0
ENDSEC
  0
EOF
