  0
SECTION
  2
HEADER
  9
$ACADVER
  1
AC1014
  9
$HANDSEED
  5
FFFF
  9
$MEASUREMENT
 70
     1
  0
ENDSEC
  0
SECTION
  2
TABLES
  0
TABLE
  2
VPORT
  5
8
330
0
100
AcDbSymbolTable
 70
     4
  0
VPORT
  5
2E
330
8
100
AcDbSymbolTableRecord
100
AcDbViewportTableRecord
  2
*ACTIVE
 70
     0
 10
0.0
 20
0.0
 11
1.0
 21
1.0
 12
210.0
 22
148.5
 13
0.0
 23
0.0
 14
10.0
 24
10.0
 15
10.0
 25
10.0
 16
0.0
 26
0.0
 36
1.0
 17
0.0
 27
0.0
 37
0.0
 40
341.0
 41
1.24
 42
50.0
 43
0.0
 44
0.0
 50
0.0
 51
0.0
 71
     0
 72
   100
 73
     1
 74
     3
 75
     0
 76
     0
 77
     0
 78
     0
  0
ENDTAB
  0
TABLE
  2
LTYPE
  5
5
330
0
100
AcDbSymbolTable
 70
     1
  0
LTYPE
  5
14
330
5
100
AcDbSymbolTableRecord
100
AcDbLinetypeTableRecord
  2
BYBLOCK
 70
     0
  3

 72
    65
 73
     0
 40
0.0
  0
LTYPE
  5
15
330
5
100
AcDbSymbolTableRecord
100
AcDbLinetypeTableRecord
  2
BYLAYER
 70
     0
  3

 72
    65
 73
     0
 40
0.0
  0
LTYPE
  5
16
330
5
100
AcDbSymbolTableRecord
100
AcDbLinetypeTableRecord
  2
CONTINUOUS
 70
     0
  3
Solid line
 72
    65
 73
     0
 40
0.0
  0
ENDTAB
  0
TABLE
  2
LAYER
  5
2
100
AcDbSymbolTable
 70
3
  0
LAYER
  5
50
100
AcDbSymbolTableRecord
100
AcDbLayerTableRecord
  2
0
 70
0
  6
CONTINUOUS
  0
LAYER
  5
51
100
AcDbSymbolTableRecord
100
AcDbLayerTableRecord
  2
blue
 70
0
  6
CONTINUOUS
  0
LAYER
  5
52
100
AcDbSymbolTableRecord
100
AcDbLayerTableRecord
  2
green
 70
0
  6
CONTINUOUS
  0
ENDTAB
  0
TABLE
  2
STYLE
  5
3
330
0
100
AcDbSymbolTable
 70
     1
  0
STYLE
  5
11
330
3
100
AcDbSymbolTableRecord
100
AcDbTextStyleTableRecord
  2
STANDARD
 70
     0
 40
0.0
 41
1.0
 50
0.0
 71
     0
 42
2.5
  3
txt
  4

  0
ENDTAB
  0
TABLE
  2
VIEW
  5
6
330
0
100
AcDbSymbolTable
 70
     0
  0
ENDTAB
  0
TABLE
  2
UCS
  5
7
330
0
100
AcDbSymbolTable
 70
     0
  0
ENDTAB
  0
TABLE
  2
APPID
  5
9
330
0
100
AcDbSymbolTable
 70
     2
  0
APPID
  5
12
330
9
100
AcDbSymbolTableRecord
100
AcDbRegAppTableRecord
  2
ACAD
 70
     0
  0
ENDTAB
  0
TABLE
  2
DIMSTYLE
  5
A
330
0
100
AcDbSymbolTable
 70
     1
  0
DIMSTYLE
105
27
330
A
100
AcDbSymbolTableRecord
100
AcDbDimStyleTableRecord
  2
ISO-25
 70
     0
  3

  4

  5

  6

  7

 40
1.0
 41
2.5
 42
0.625
 43
3.75
 44
1.25
 45
0.0
 46
0.0
 47
0.0
 48
0.0
140
2.5
141
2.5
142
0.0
143
0.03937007874016
144
1.0
145
0.0
146
1.0
147
0.625
 71
     0
 72
     0
 73
     0
 74
     0
 75
     0
 76
     0
 77
     1
 78
     8
170
     0
171
     3
172
     1
173
     0
174
     0
175
     0
176
     0
177
     0
178
     0
270
     2
271
     2
272
     2
273
     2
274
     3
340
11
275
     0
280
     0
281
     0
282
     0
283
     0
284
     8
285
     0
286
     0
287
     3
288
     0
  0
ENDTAB
  0
TABLE
  2
BLOCK_RECORD
  5
1
330
0
100
AcDbSymbolTable
 70
     1
  0
BLOCK_RECORD
  5
1F
330
1
100
AcDbSymbolTableRecord
100
AcDbBlockTableRecord
  2
*MODEL_SPACE
  0
BLOCK_RECORD
  5
1B
330
1
100
AcDbSymbolTableRecord
100
AcDbBlockTableRecord
  2
*PAPER_SPACE
  0
ENDTAB
  0
ENDSEC
  0
SECTION
  2
BLOCKS
  0
BLOCK
  5
20
330
1F
100
AcDbEntity
  8
0
100
AcDbBlockBegin
  2
*MODEL_SPACE
 70
     0
 10
0.0
 20
0.0
 30
0.0
  3
*MODEL_SPACE
  1

  0
ENDBLK
  5
21
330
1F
100
AcDbEntity
  8
0
100
AcDbBlockEnd
  0
BLOCK
  5
1C
330
1B
100
AcDbEntity
 67
     1
  8
0
100
AcDbBlockBegin
  2
*PAPER_SPACE
  1

  0
ENDBLK
  5
1D
330
1B
100
AcDbEntity
 67
     1
  8
0
100
AcDbBlockEnd
  0
ENDSEC
  0
SECTION
  2
ENTITIES
  0
SPLINE
  5
100
100
AcDbEntity
  8
0
 62
1
100
AcDbSpline
 70
8
 71
3
 72
8
 73
4
 74
0
 40
0
 40
0
 40
0
 40
0
 40
1
 40
1
 40
1
 40
1
 10
36.843498
 20
-60.807032
 30
0.0
 10
36.843532
 20
-60.491215
 30
0.0
 10
36.718089
 20
-60.188323
 30
0.0
 10
36.494773
 20
-59.965007
 30
0.0
  0
SPLINE
  5
101
100
AcDbEntity
  8
0
 62
1
100
AcDbSpline
 70
8
 71
3
 72
8
 73
4
 74
0
 40
0
 40
0
 40
0
 40
0
 40
1
 40
1
 40
1
 40
1
 10
36.494773
 20
-59.965007
 30
0.0
 10
36.271456
 20
-59.741691
 30
0.0
 10
35.968564
 20
-59.616248
 30
0.0
 10
35.652747
 20
-59.616281
 30
0.0
  0
SPLINE
  5
102
100
AcDbEntity
  8
0
 62
1
100
AcDbSpline
 70
8
 71
3
 72
8
 73
4
 74
0
 40
0
 40
0
 40
0
 40
0
 40
1
 40
1
 40
1
 40
1
 10
21.993401
 20
-59.626949
 30
0.0
 10
21.677628
 20
-59.626983
 30
0.0
 10
21.374801
 20
-59.752456
 30
0.0
 10
21.151540
 20
-59.975765
 30
0.0
  0
SPLINE
  5
103
100
AcDbEntity
  8
0
 62
1
100
AcDbSpline
 70
8
 71
3
 72
8
 73
4
 74
0
 40
0
 40
0
 40
0
 40
0
 40
1
 40
1
 40
1
 40
1
 10
21.151540
 20
-59.975765
 30
0.0
 10
20.928279
 20
-60.199074
 30
0.0
 10
20.802870
 20
-60.501927
 30
0.0
 10
20.802904
 20
-60.817700
 30
0.0
  0
LWPOLYLINE
  5
104
100
AcDbEntity
  8
0
 62
1
100
AcDbPolyline
 90
2
 70
0
 10
37.753325
 20
-65.544636
 30
0.0
 10
38.461985
 20
-65.544636
 30
0.0
  0
LWPOLYLINE
  5
105
100
AcDbEntity
  8
0
 62
1
100
AcDbPolyline
 90
2
 70
0
 10
20.791220
 20
-60.774520
 30
0.0
 10
20.791220
 20
-65.537016
 30
0.0
  0
LWPOLYLINE
  5
106
100
AcDbEntity
  8
0
 62
1
100
AcDbPolyline
 90
2
 70
0
 10
36.841466
 20
-65.544636
 30
0.0
 10
37.753325
 20
-65.544636
 30
0.0
  0
LWPOLYLINE
  5
107
100
AcDbEntity
  8
0
 62
1
100
AcDbPolyline
 90
2
 70
0
 10
36.841466
 20
-60.774520
 30
0.0
 10
36.841466
 20
-65.544636
 30
0.0
  0
LWPOLYLINE
  5
108
100
AcDbEntity
  8
0
 62
1
100
AcDbPolyline
 90
2
 70
0
 10
34.103349
 20
-59.616281
 30
0.0
 10
34.182089
 20
-59.616281
 30
0.0
  0
LWPOLYLINE
  5
109
100
AcDbEntity
  8
0
 62
1
100
AcDbPolyline
 90
2
 70
0
 10
21.921519
 20
-59.626441
 30
0.0
 10
35.721327
 20
-59.626441
 30
0.0
  0
LWPOLYLINE
  5
10a
100
AcDbEntity
  8
0
 62
1
100
AcDbPolyline
 90
2
 70
0
 10
38.482305
 20
-86.344676
 30
0.0
 10
40.168863
 20
-86.372616
 30
0.0
  0
LWPOLYLINE
  5
10b
100
AcDbEntity
  8
0
 62
1
100
AcDbPolyline
 90
2
 70
0
 10
38.461985
 20
-65.516696
 30
0.0
 10
38.482305
 20
-86.344676
 30
0.0
  0
LWPOLYLINE
  5
10c
100
AcDbEntity
  8
0
 62
1
100
AcDbPolyline
 90
2
 70
0
 10
0.082620
 20
-65.544636
 30
0.0
 10
20.801380
 20
-65.526856
 30
0.0
  0
LWPOLYLINE
  5
10d
100
AcDbEntity
  8
0
 62
1
100
AcDbPolyline
 90
2
 70
0
 10
99.231427
 20
-67.924613
 30
0.0
 10
100.171226
 20
-72.506769
 30
0.0
  0
LWPOLYLINE
  5
10e
100
AcDbEntity
  8
0
 62
1
100
AcDbPolyline
 90
2
 70
0
 10
99.221267
 20
-67.934773
 30
0.0
 10
99.231427
 20
-67.924613
 30
0.0
  0
LWPOLYLINE
  5
10f
100
AcDbEntity
  8
0
 62
1
100
AcDbPolyline
 90
2
 70
0
 10
85.441780
 20
-67.934773
 30
0.0
 10
99.221267
 20
-67.934773
 30
0.0
  0
LWPOLYLINE
  5
110
100
AcDbEntity
  8
0
 62
1
100
AcDbPolyline
 90
2
 70
0
 10
85.441780
 20
-61.066620
 30
0.0
 10
85.441780
 20
-67.934773
 30
0.0
  0
SPLINE
  5
111
100
AcDbEntity
  8
0
 62
1
100
AcDbSpline
 70
8
 71
3
 72
8
 73
4
 74
0
 40
0
 40
0
 40
0
 40
0
 40
1
 40
1
 40
1
 40
1
 10
90.383346
 20
-92.536936
 30
0.0
 10
91.695259
 20
-92.721105
 30
0.0
 10
92.963419
 20
-91.985897
 30
0.0
 10
93.455473
 20
-90.755890
 30
0.0
  0
LWPOLYLINE
  5
112
100
AcDbEntity
  8
0
 62
1
100
AcDbPolyline
 90
2
 70
0
 10
85.441780
 20
-61.066620
 30
0.0
 10
97.791249
 20
-61.056460
 30
0.0
  0
LWPOLYLINE
  5
113
100
AcDbEntity
  8
0
 62
1
100
AcDbPolyline
 90
2
 70
0
 10
90.608135
 20
-92.560050
 30
0.0
 10
40.168863
 20
-86.372616
 30
0.0
  0
LWPOLYLINE
  5
114
100
AcDbEntity
  8
0
 62
1
100
AcDbPolyline
 90
2
 70
0
 10
100.168686
 20
-78.498623
 30
0.0
 10
93.282753
 20
-91.086852
 30
0.0
  0
LWPOLYLINE
  5
115
100
AcDbEntity
  8
0
 62
1
100
AcDbPolyline
 90
2
 70
0
 10
100.168686
 20
-72.499149
 30
0.0
 10
100.168686
 20
-78.498623
 30
0.0
  0
LWPOLYLINE
  5
116
100
AcDbEntity
  8
0
 62
1
100
AcDbPolyline
 90
2
 70
0
 10
96.226610
 20
-53.352647
 30
0.0
 10
97.791249
 20
-61.056460
 30
0.0
  0
LWPOLYLINE
  5
117
100
AcDbEntity
  8
0
 62
1
100
AcDbPolyline
 90
2
 70
0
 10
88.581217
 20
-3.942073
 30
0.0
 10
82.203283
 20
0.822963
 30
0.0
  0
LWPOLYLINE
  5
118
100
AcDbEntity
  8
0
 62
1
100
AcDbPolyline
 90
2
 70
0
 10
56.435008
 20
0.820423
 30
0.0
 10
82.221063
 20
0.820423
 30
0.0
  0
LWPOLYLINE
  5
119
100
AcDbEntity
  8
0
 62
1
100
AcDbPolyline
 90
2
 70
0
 10
20.120661
 20
0.820423
 30
0.0
 10
56.435008
 20
0.820423
 30
0.0
  0
LWPOLYLINE
  5
11a
100
AcDbEntity
  8
0
 62
1
100
AcDbPolyline
 90
2
 70
0
 10
96.226610
 20
-5.133332
 30
0.0
 10
96.226610
 20
-53.352647
 30
0.0
  0
LWPOLYLINE
  5
11b
100
AcDbEntity
  8
0
 62
1
100
AcDbPolyline
 90
2
 70
0
 10
88.581217
 20
-3.942073
 30
0.0
 10
95.081071
 20
-3.942073
 30
0.0
  0
LWPOLYLINE
  5
11c
100
AcDbEntity
  8
0
 62
1
100
AcDbPolyline
 90
2
 70
0
 10
0.075000
 20
-7.513309
 30
0.0
 10
0.082620
 20
-65.544636
 30
0.0
  0
LWPOLYLINE
  5
11d
100
AcDbEntity
  8
0
 62
1
100
AcDbPolyline
 90
2
 70
0
 10
17.740683
 20
-6.322050
 30
0.0
 10
1.266259
 20
-6.322050
 30
0.0
  0
SPLINE
  5
11e
100
AcDbEntity
  8
0
 62
1
100
AcDbSpline
 70
8
 71
3
 72
8
 73
4
 74
0
 40
0
 40
0
 40
0
 40
0
 40
1
 40
1
 40
1
 40
1
 10
17.741191
 20
-6.324590
 30
0.0
 10
18.057008
 20
-6.324624
 30
0.0
 10
18.359900
 20
-6.199181
 30
0.0
 10
18.583216
 20
-5.975865
 30
0.0
  0
SPLINE
  5
11f
100
AcDbEntity
  8
0
 62
1
100
AcDbSpline
 70
8
 71
3
 72
8
 73
4
 74
0
 40
0
 40
0
 40
0
 40
0
 40
1
 40
1
 40
1
 40
1
 10
18.583216
 20
-5.975865
 30
0.0
 10
18.806533
 20
-5.752548
 30
0.0
 10
18.931976
 20
-5.449657
 30
0.0
 10
18.931942
 20
-5.133840
 30
0.0
  0
SPLINE
  5
120
100
AcDbEntity
  8
0
 62
1
100
AcDbSpline
 70
8
 71
3
 72
8
 73
4
 74
0
 40
0
 40
0
 40
0
 40
0
 40
1
 40
1
 40
1
 40
1
 10
20.122439
 20
0.819153
 30
0.0
 10
19.464975
 20
0.819083
 30
0.0
 10
18.932012
 20
0.286120
 30
0.0
 10
18.931942
 20
-0.371344
 30
0.0
  0
SPLINE
  5
121
100
AcDbEntity
  8
0
 62
1
100
AcDbSpline
 70
8
 71
3
 72
8
 73
4
 74
0
 40
0
 40
0
 40
0
 40
0
 40
1
 40
1
 40
1
 40
1
 10
1.267783
 20
-6.324590
 30
0.0
 10
0.610319
 20
-6.324661
 30
0.0
 10
0.077356
 20
-6.857623
 30
0.0
 10
0.077286
 20
-7.515087
 30
0.0
  0
SPLINE
  5
122
100
AcDbEntity
  8
0
 62
1
100
AcDbSpline
 70
8
 71
3
 72
8
 73
4
 74
0
 40
0
 40
0
 40
0
 40
0
 40
1
 40
1
 40
1
 40
1
 10
96.227118
 20
-5.133840
 30
0.0
 10
96.227048
 20
-4.476375
 30
0.0
 10
95.694085
 20
-3.943413
 30
0.0
 10
95.036621
 20
-3.943343
 30
0.0
  0
LWPOLYLINE
  5
123
100
AcDbEntity
  8
0
 62
1
100
AcDbPolyline
 90
2
 70
0
 10
18.929402
 20
-0.370836
 30
0.0
 10
18.929402
 20
-5.133332
 30
0.0
  0
LWPOLYLINE
  5
124
100
AcDbEntity
  8
blue
 62
5
100
AcDbPolyline
 90
2
 70
0
 10
55.101509
 20
-15.704803
 30
0.0
 10
55.101509
 20
-1.704336
 30
0.0
  0
LWPOLYLINE
  5
125
100
AcDbEntity
  8
blue
 62
5
100
AcDbPolyline
 90
2
 70
0
 10
41.101042
 20
-15.704803
 30
0.0
 10
55.101509
 20
-15.704803
 30
0.0
  0
LWPOLYLINE
  5
126
100
AcDbEntity
  8
blue
 62
5
100
AcDbPolyline
 90
2
 70
0
 10
41.101042
 20
-1.704336
 30
0.0
 10
41.101042
 20
-15.704803
 30
0.0
  0
LWPOLYLINE
  5
127
100
AcDbEntity
  8
blue
 62
5
100
AcDbPolyline
 90
2
 70
0
 10
55.101509
 20
-1.704336
 30
0.0
 10
41.101042
 20
-1.704336
 30
0.0
  0
LWPOLYLINE
  5
128
100
AcDbEntity
  8
blue
 62
5
100
AcDbPolyline
 90
2
 70
0
 10
74.151491
 20
-18.084781
 30
0.0
 10
74.151491
 20
-4.086854
 30
0.0
  0
LWPOLYLINE
  5
129
100
AcDbEntity
  8
blue
 62
5
100
AcDbPolyline
 90
2
 70
0
 10
60.151024
 20
-18.084781
 30
0.0
 10
74.151491
 20
-18.084781
 30
0.0
  0
LWPOLYLINE
  5
12a
100
AcDbEntity
  8
blue
 62
5
100
AcDbPolyline
 90
2
 70
0
 10
60.151024
 20
-4.086854
 30
0.0
 10
60.151024
 20
-18.084781
 30
0.0
  0
LWPOLYLINE
  5
12b
100
AcDbEntity
  8
blue
 62
5
100
AcDbPolyline
 90
2
 70
0
 10
74.151491
 20
-4.086854
 30
0.0
 10
60.151024
 20
-4.086854
 30
0.0
  0
LWPOLYLINE
  5
12c
100
AcDbEntity
  8
blue
 62
5
100
AcDbPolyline
 90
2
 70
0
 10
55.101509
 20
-34.754785
 30
0.0
 10
55.101509
 20
-20.754318
 30
0.0
  0
LWPOLYLINE
  5
12d
100
AcDbEntity
  8
blue
 62
5
100
AcDbPolyline
 90
2
 70
0
 10
41.101042
 20
-34.754785
 30
0.0
 10
55.101509
 20
-34.754785
 30
0.0
  0
LWPOLYLINE
  5
12e
100
AcDbEntity
  8
blue
 62
5
100
AcDbPolyline
 90
2
 70
0
 10
41.101042
 20
-20.754318
 30
0.0
 10
41.101042
 20
-34.754785
 30
0.0
  0
LWPOLYLINE
  5
12f
100
AcDbEntity
  8
blue
 62
5
100
AcDbPolyline
 90
2
 70
0
 10
55.101509
 20
-20.754318
 30
0.0
 10
41.101042
 20
-20.754318
 30
0.0
  0
LWPOLYLINE
  5
130
100
AcDbEntity
  8
blue
 62
5
100
AcDbPolyline
 90
2
 70
0
 10
74.151491
 20
-37.134763
 30
0.0
 10
74.151491
 20
-23.136836
 30
0.0
  0
LWPOLYLINE
  5
131
100
AcDbEntity
  8
blue
 62
5
100
AcDbPolyline
 90
2
 70
0
 10
60.151024
 20
-37.134763
 30
0.0
 10
74.151491
 20
-37.134763
 30
0.0
  0
LWPOLYLINE
  5
132
100
AcDbEntity
  8
blue
 62
5
100
AcDbPolyline
 90
2
 70
0
 10
60.151024
 20
-23.136836
 30
0.0
 10
60.151024
 20
-37.134763
 30
0.0
  0
LWPOLYLINE
  5
133
100
AcDbEntity
  8
blue
 62
5
100
AcDbPolyline
 90
2
 70
0
 10
74.151491
 20
-23.136836
 30
0.0
 10
60.151024
 20
-23.136836
 30
0.0
  0
LWPOLYLINE
  5
134
100
AcDbEntity
  8
blue
 62
5
100
AcDbPolyline
 90
2
 70
0
 10
55.101509
 20
-53.804767
 30
0.0
 10
55.101509
 20
-39.804300
 30
0.0
  0
LWPOLYLINE
  5
135
100
AcDbEntity
  8
blue
 62
5
100
AcDbPolyline
 90
2
 70
0
 10
41.101042
 20
-53.804767
 30
0.0
 10
55.101509
 20
-53.804767
 30
0.0
  0
LWPOLYLINE
  5
136
100
AcDbEntity
  8
blue
 62
5
100
AcDbPolyline
 90
2
 70
0
 10
41.101042
 20
-39.804300
 30
0.0
 10
41.101042
 20
-53.804767
 30
0.0
  0
LWPOLYLINE
  5
137
100
AcDbEntity
  8
blue
 62
5
100
AcDbPolyline
 90
2
 70
0
 10
55.101509
 20
-39.804300
 30
0.0
 10
41.101042
 20
-39.804300
 30
0.0
  0
LWPOLYLINE
  5
138
100
AcDbEntity
  8
blue
 62
5
100
AcDbPolyline
 90
2
 70
0
 10
74.151491
 20
-56.184745
 30
0.0
 10
74.151491
 20
-42.186818
 30
0.0
  0
LWPOLYLINE
  5
139
100
AcDbEntity
  8
blue
 62
5
100
AcDbPolyline
 90
2
 70
0
 10
60.151024
 20
-56.184745
 30
0.0
 10
74.151491
 20
-56.184745
 30
0.0
  0
LWPOLYLINE
  5
13a
100
AcDbEntity
  8
blue
 62
5
100
AcDbPolyline
 90
2
 70
0
 10
60.151024
 20
-42.186818
 30
0.0
 10
60.151024
 20
-56.184745
 30
0.0
  0
LWPOLYLINE
  5
13b
100
AcDbEntity
  8
blue
 62
5
100
AcDbPolyline
 90
2
 70
0
 10
74.151491
 20
-42.186818
 30
0.0
 10
60.151024
 20
-42.186818
 30
0.0
  0
LWPOLYLINE
  5
13c
100
AcDbEntity
  8
blue
 62
5
100
AcDbPolyline
 90
2
 70
0
 10
93.201473
 20
-39.517280
 30
0.0
 10
93.201473
 20
-25.516814
 30
0.0
  0
LWPOLYLINE
  5
13d
100
AcDbEntity
  8
blue
 62
5
100
AcDbPolyline
 90
2
 70
0
 10
79.201006
 20
-39.517280
 30
0.0
 10
93.201473
 20
-39.517280
 30
0.0
  0
LWPOLYLINE
  5
13e
100
AcDbEntity
  8
blue
 62
5
100
AcDbPolyline
 90
2
 70
0
 10
79.201006
 20
-25.516814
 30
0.0
 10
79.201006
 20
-39.517280
 30
0.0
  0
LWPOLYLINE
  5
13f
100
AcDbEntity
  8
blue
 62
5
100
AcDbPolyline
 90
2
 70
0
 10
93.201473
 20
-25.516814
 30
0.0
 10
79.201006
 20
-25.516814
 30
0.0
  0
LWPOLYLINE
  5
140
100
AcDbEntity
  8
blue
 62
5
100
AcDbPolyline
 90
2
 70
0
 10
93.201473
 20
-58.567262
 30
0.0
 10
93.201473
 20
-44.566796
 30
0.0
  0
LWPOLYLINE
  5
141
100
AcDbEntity
  8
blue
 62
5
100
AcDbPolyline
 90
2
 70
0
 10
79.201006
 20
-58.567262
 30
0.0
 10
93.201473
 20
-58.567262
 30
0.0
  0
LWPOLYLINE
  5
142
100
AcDbEntity
  8
blue
 62
5
100
AcDbPolyline
 90
2
 70
0
 10
79.201006
 20
-44.566796
 30
0.0
 10
79.201006
 20
-58.567262
 30
0.0
  0
LWPOLYLINE
  5
143
100
AcDbEntity
  8
blue
 62
5
100
AcDbPolyline
 90
2
 70
0
 10
93.201473
 20
-44.566796
 30
0.0
 10
79.201006
 20
-44.566796
 30
0.0
  0
LWPOLYLINE
  5
144
100
AcDbEntity
  8
blue
 62
5
100
AcDbPolyline
 90
2
 70
0
 10
93.201473
 20
-20.467298
 30
0.0
 10
93.201473
 20
-6.466832
 30
0.0
  0
LWPOLYLINE
  5
145
100
AcDbEntity
  8
blue
 62
5
100
AcDbPolyline
 90
2
 70
0
 10
79.201006
 20
-20.467298
 30
0.0
 10
93.201473
 20
-20.467298
 30
0.0
  0
LWPOLYLINE
  5
146
100
AcDbEntity
  8
blue
 62
5
100
AcDbPolyline
 90
2
 70
0
 10
79.201006
 20
-6.466832
 30
0.0
 10
79.201006
 20
-20.467298
 30
0.0
  0
LWPOLYLINE
  5
147
100
AcDbEntity
  8
blue
 62
5
100
AcDbPolyline
 90
2
 70
0
 10
93.201473
 20
-6.466832
 30
0.0
 10
79.201006
 20
-6.466832
 30
0.0
  0
LWPOLYLINE
  5
148
100
AcDbEntity
  8
blue
 62
5
100
AcDbPolyline
 90
2
 70
0
 10
36.051527
 20
-18.084781
 30
0.0
 10
36.051527
 20
-4.086854
 30
0.0
  0
LWPOLYLINE
  5
149
100
AcDbEntity
  8
blue
 62
5
100
AcDbPolyline
 90
2
 70
0
 10
22.051060
 20
-18.084781
 30
0.0
 10
36.051527
 20
-18.084781
 30
0.0
  0
LWPOLYLINE
  5
14a
100
AcDbEntity
  8
blue
 62
5
100
AcDbPolyline
 90
2
 70
0
 10
22.051060
 20
-4.086854
 30
0.0
 10
22.051060
 20
-18.084781
 30
0.0
  0
LWPOLYLINE
  5
14b
100
AcDbEntity
  8
blue
 62
5
100
AcDbPolyline
 90
2
 70
0
 10
36.051527
 20
-4.086854
 30
0.0
 10
22.051060
 20
-4.086854
 30
0.0
  0
LWPOLYLINE
  5
14c
100
AcDbEntity
  8
blue
 62
5
100
AcDbPolyline
 90
2
 70
0
 10
36.051527
 20
-37.134763
 30
0.0
 10
36.051527
 20
-23.136836
 30
0.0
  0
LWPOLYLINE
  5
14d
100
AcDbEntity
  8
blue
 62
5
100
AcDbPolyline
 90
2
 70
0
 10
22.051060
 20
-37.134763
 30
0.0
 10
36.051527
 20
-37.134763
 30
0.0
  0
LWPOLYLINE
  5
14e
100
AcDbEntity
  8
blue
 62
5
100
AcDbPolyline
 90
2
 70
0
 10
22.051060
 20
-23.136836
 30
0.0
 10
22.051060
 20
-37.134763
 30
0.0
  0
LWPOLYLINE
  5
14f
100
AcDbEntity
  8
blue
 62
5
100
AcDbPolyline
 90
2
 70
0
 10
36.051527
 20
-23.136836
 30
0.0
 10
22.051060
 20
-23.136836
 30
0.0
  0
LWPOLYLINE
  5
150
100
AcDbEntity
  8
blue
 62
5
100
AcDbPolyline
 90
2
 70
0
 10
36.051527
 20
-56.184745
 30
0.0
 10
36.051527
 20
-42.186818
 30
0.0
  0
LWPOLYLINE
  5
151
100
AcDbEntity
  8
blue
 62
5
100
AcDbPolyline
 90
2
 70
0
 10
22.051060
 20
-56.184745
 30
0.0
 10
36.051527
 20
-56.184745
 30
0.0
  0
LWPOLYLINE
  5
152
100
AcDbEntity
  8
blue
 62
5
100
AcDbPolyline
 90
2
 70
0
 10
22.051060
 20
-42.186818
 30
0.0
 10
22.051060
 20
-56.184745
 30
0.0
  0
LWPOLYLINE
  5
153
100
AcDbEntity
  8
blue
 62
5
100
AcDbPolyline
 90
2
 70
0
 10
36.051527
 20
-42.186818
 30
0.0
 10
22.051060
 20
-42.186818
 30
0.0
  0
LWPOLYLINE
  5
154
100
AcDbEntity
  8
blue
 62
5
100
AcDbPolyline
 90
2
 70
0
 10
17.001545
 20
-22.847276
 30
0.0
 10
17.001545
 20
-8.849349
 30
0.0
  0
LWPOLYLINE
  5
155
100
AcDbEntity
  8
blue
 62
5
100
AcDbPolyline
 90
2
 70
0
 10
3.001078
 20
-22.847276
 30
0.0
 10
17.001545
 20
-22.847276
 30
0.0
  0
LWPOLYLINE
  5
156
100
AcDbEntity
  8
blue
 62
5
100
AcDbPolyline
 90
2
 70
0
 10
3.001078
 20
-8.849349
 30
0.0
 10
3.001078
 20
-22.847276
 30
0.0
  0
LWPOLYLINE
  5
157
100
AcDbEntity
  8
blue
 62
5
100
AcDbPolyline
 90
2
 70
0
 10
17.001545
 20
-8.849349
 30
0.0
 10
3.001078
 20
-8.849349
 30
0.0
  0
LWPOLYLINE
  5
158
100
AcDbEntity
  8
blue
 62
5
100
AcDbPolyline
 90
2
 70
0
 10
17.001545
 20
-41.897258
 30
0.0
 10
17.001545
 20
-27.899331
 30
0.0
  0
LWPOLYLINE
  5
159
100
AcDbEntity
  8
blue
 62
5
100
AcDbPolyline
 90
2
 70
0
 10
3.001078
 20
-41.897258
 30
0.0
 10
17.001545
 20
-41.897258
 30
0.0
  0
LWPOLYLINE
  5
15a
100
AcDbEntity
  8
blue
 62
5
100
AcDbPolyline
 90
2
 70
0
 10
3.001078
 20
-27.899331
 30
0.0
 10
3.001078
 20
-41.897258
 30
0.0
  0
LWPOLYLINE
  5
15b
100
AcDbEntity
  8
blue
 62
5
100
AcDbPolyline
 90
2
 70
0
 10
17.001545
 20
-27.899331
 30
0.0
 10
3.001078
 20
-27.899331
 30
0.0
  0
LWPOLYLINE
  5
15c
100
AcDbEntity
  8
blue
 62
5
100
AcDbPolyline
 90
2
 70
0
 10
17.001545
 20
-60.947240
 30
0.0
 10
17.001545
 20
-46.949313
 30
0.0
  0
LWPOLYLINE
  5
15d
100
AcDbEntity
  8
blue
 62
5
100
AcDbPolyline
 90
2
 70
0
 10
3.001078
 20
-60.947240
 30
0.0
 10
17.001545
 20
-60.947240
 30
0.0
  0
LWPOLYLINE
  5
15e
100
AcDbEntity
  8
blue
 62
5
100
AcDbPolyline
 90
2
 70
0
 10
3.001078
 20
-46.949313
 30
0.0
 10
3.001078
 20
-60.947240
 30
0.0
  0
LWPOLYLINE
  5
15f
100
AcDbEntity
  8
blue
 62
5
100
AcDbPolyline
 90
2
 70
0
 10
17.001545
 20
-46.949313
 30
0.0
 10
3.001078
 20
-46.949313
 30
0.0
  0
LWPOLYLINE
  5
160
100
AcDbEntity
  8
blue
 62
5
100
AcDbPolyline
 90
2
 70
0
 10
54.250610
 20
-80.411242
 30
0.0
 10
54.250610
 20
-66.410775
 30
0.0
  0
LWPOLYLINE
  5
161
100
AcDbEntity
  8
blue
 62
5
100
AcDbPolyline
 90
2
 70
0
 10
40.250143
 20
-80.411242
 30
0.0
 10
54.250610
 20
-80.411242
 30
0.0
  0
LWPOLYLINE
  5
162
100
AcDbEntity
  8
blue
 62
5
100
AcDbPolyline
 90
2
 70
0
 10
40.250143
 20
-66.410775
 30
0.0
 10
40.250143
 20
-80.411242
 30
0.0
  0
LWPOLYLINE
  5
163
100
AcDbEntity
  8
blue
 62
5
100
AcDbPolyline
 90
2
 70
0
 10
54.250610
 20
-66.410775
 30
0.0
 10
40.250143
 20
-66.410775
 30
0.0
  0
LWPOLYLINE
  5
164
100
AcDbEntity
  8
blue
 62
5
100
AcDbPolyline
 90
2
 70
0
 10
73.521572
 20
-84.637798
 30
0.0
 10
77.146148
 20
-71.114850
 30
0.0
  0
LWPOLYLINE
  5
165
100
AcDbEntity
  8
blue
 62
5
100
AcDbPolyline
 90
2
 70
0
 10
59.998624
 20
-81.015761
 30
0.0
 10
73.521572
 20
-84.637798
 30
0.0
  0
LWPOLYLINE
  5
166
100
AcDbEntity
  8
blue
 62
5
100
AcDbPolyline
 90
2
 70
0
 10
63.623201
 20
-67.492814
 30
0.0
 10
59.998624
 20
-81.015761
 30
0.0
  0
LWPOLYLINE
  5
167
100
AcDbEntity
  8
blue
 62
5
100
AcDbPolyline
 90
2
 70
0
 10
77.146148
 20
-71.114850
 30
0.0
 10
63.623201
 20
-67.492814
 30
0.0
  0
LWPOLYLINE
  5
168
100
AcDbEntity
  8
blue
 62
5
100
AcDbPolyline
 90
2
 70
0
 10
92.624894
 20
-88.988814
 30
0.0
 10
99.305087
 20
-76.685065
 30
0.0
  0
LWPOLYLINE
  5
169
100
AcDbEntity
  8
blue
 62
5
100
AcDbPolyline
 90
2
 70
0
 10
80.321145
 20
-82.306080
 30
0.0
 10
92.624894
 20
-88.988814
 30
0.0
  0
LWPOLYLINE
  5
16a
100
AcDbEntity
  8
blue
 62
5
100
AcDbPolyline
 90
2
 70
0
 10
87.001339
 20
-70.004871
 30
0.0
 10
80.321145
 20
-82.306080
 30
0.0
  0
SPLINE
  5
16b
100
AcDbEntity
  8
green
 62
3
100
AcDbSpline
 70
8
 71
3
 72
8
 73
4
 74
0
 40
0
 40
0
 40
0
 40
0
 40
1
 40
1
 40
1
 40
1
 10
74.433309
 20
-64.070256
 30
0.0
 10
74.433309
 20
-64.641880
 30
0.0
 10
74.128351
 20
-65.170083
 30
0.0
 10
73.633310
 20
-65.455895
 30
0.0
  0
SPLINE
  5
16c
100
AcDbEntity
  8
green
 62
3
100
AcDbSpline
 70
8
 71
3
 72
8
 73
4
 74
0
 40
0
 40
0
 40
0
 40
0
 40
1
 40
1
 40
1
 40
1
 10
73.633310
 20
-65.455895
 30
0.0
 10
73.138269
 20
-65.741707
 30
0.0
 10
72.528353
 20
-65.741707
 30
0.0
 10
72.033312
 20
-65.455895
 30
0.0
  0
SPLINE
  5
16d
100
AcDbEntity
  8
green
 62
3
100
AcDbSpline
 70
8
 71
3
 72
8
 73
4
 74
0
 40
0
 40
0
 40
0
 40
0
 40
1
 40
1
 40
1
 40
1
 10
72.033312
 20
-65.455895
 30
0.0
 10
71.538271
 20
-65.170083
 30
0.0
 10
71.233313
 20
-64.641880
 30
0.0
 10
71.233313
 20
-64.070256
 30
0.0
  0
SPLINE
  5
16e
100
AcDbEntity
  8
green
 62
3
100
AcDbSpline
 70
8
 71
3
 72
8
 73
4
 74
0
 40
0
 40
0
 40
0
 40
0
 40
1
 40
1
 40
1
 40
1
 10
71.233313
 20
-64.070256
 30
0.0
 10
71.233313
 20
-63.498632
 30
0.0
 10
71.538271
 20
-62.970429
 30
0.0
 10
72.033312
 20
-62.684617
 30
0.0
  0
SPLINE
  5
16f
100
AcDbEntity
  8
green
 62
3
100
AcDbSpline
 70
8
 71
3
 72
8
 73
4
 74
0
 40
0
 40
0
 40
0
 40
0
 40
1
 40
1
 40
1
 40
1
 10
72.033312
 20
-62.684617
 30
0.0
 10
72.528353
 20
-62.398805
 30
0.0
 10
73.138269
 20
-62.398805
 30
0.0
 10
73.633310
 20
-62.684617
 30
0.0
  0
SPLINE
  5
170
100
AcDbEntity
  8
green
 62
3
100
AcDbSpline
 70
8
 71
3
 72
8
 73
4
 74
0
 40
0
 40
0
 40
0
 40
0
 40
1
 40
1
 40
1
 40
1
 10
73.633310
 20
-62.684617
 30
0.0
 10
74.128351
 20
-62.970429
 30
0.0
 10
74.433309
 20
-63.498632
 30
0.0
 10
74.433309
 20
-64.070256
 30
0.0
  0
LWPOLYLINE
  5
171
100
AcDbEntity
  8
blue
 62
5
100
AcDbPolyline
 90
2
 70
0
 10
99.305087
 20
-76.685065
 30
0.0
 10
87.001339
 20
-70.004871
 30
0.0
  0
SPLINE
  5
172
100
AcDbEntity
  8
green
 62
3
100
AcDbSpline
 70
8
 71
3
 72
8
 73
4
 74
0
 40
0
 40
0
 40
0
 40
0
 40
1
 40
1
 40
1
 40
1
 10
22.993725
 20
-2.354268
 30
0.0
 10
22.993725
 20
-2.930660
 30
0.0
 10
22.526467
 20
-3.397918
 30
0.0
 10
21.950075
 20
-3.397918
 30
0.0
  0
SPLINE
  5
173
100
AcDbEntity
  8
green
 62
3
100
AcDbSpline
 70
8
 71
3
 72
8
 73
4
 74
0
 40
0
 40
0
 40
0
 40
0
 40
1
 40
1
 40
1
 40
1
 10
21.950075
 20
-3.397918
 30
0.0
 10
21.373683
 20
-3.397918
 30
0.0
 10
20.906425
 20
-2.930660
 30
0.0
 10
20.906425
 20
-2.354268
 30
0.0
  0
SPLINE
  5
174
100
AcDbEntity
  8
green
 62
3
100
AcDbSpline
 70
8
 71
3
 72
8
 73
4
 74
0
 40
0
 40
0
 40
0
 40
0
 40
1
 40
1
 40
1
 40
1
 10
20.906425
 20
-2.354268
 30
0.0
 10
20.906425
 20
-1.981408
 30
0.0
 10
21.105344
 20
-1.636871
 30
0.0
 10
21.428250
 20
-1.450441
 30
0.0
  0
SPLINE
  5
175
100
AcDbEntity
  8
green
 62
3
100
AcDbSpline
 70
8
 71
3
 72
8
 73
4
 74
0
 40
0
 40
0
 40
0
 40
0
 40
1
 40
1
 40
1
 40
1
 10
21.428250
 20
-1.450441
 30
0.0
 10
21.751157
 20
-1.264011
 30
0.0
 10
22.148994
 20
-1.264011
 30
0.0
 10
22.471900
 20
-1.450441
 30
0.0
  0
SPLINE
  5
176
100
AcDbEntity
  8
green
 62
3
100
AcDbSpline
 70
8
 71
3
 72
8
 73
4
 74
0
 40
0
 40
0
 40
0
 40
0
 40
1
 40
1
 40
1
 40
1
 10
22.471900
 20
-1.450441
 30
0.0
 10
22.794806
 20
-1.636871
 30
0.0
 10
22.993725
 20
-1.981408
 30
0.0
 10
22.993725
 20
-2.354268
 30
0.0
  0
LWPOLYLINE
  5
177
100
AcDbEntity
  8
green
 62
3
100
AcDbPolyline
 90
1
 70
1
 10
74.433309
 20
-64.070256
 30
0.0
  0
SPLINE
  5
178
100
AcDbEntity
  8
green
 62
3
100
AcDbSpline
 70
8
 71
3
 72
8
 73
4
 74
0
 40
0
 40
0
 40
0
 40
0
 40
1
 40
1
 40
1
 40
1
 10
82.636630
 20
-2.734772
 30
0.0
 10
82.636630
 20
-3.107633
 30
0.0
 10
82.437711
 20
-3.452169
 30
0.0
 10
82.114805
 20
-3.638600
 30
0.0
  0
SPLINE
  5
179
100
AcDbEntity
  8
green
 62
3
100
AcDbSpline
 70
8
 71
3
 72
8
 73
4
 74
0
 40
0
 40
0
 40
0
 40
0
 40
1
 40
1
 40
1
 40
1
 10
82.114805
 20
-3.638600
 30
0.0
 10
81.791899
 20
-3.825030
 30
0.0
 10
81.394062
 20
-3.825030
 30
0.0
 10
81.071156
 20
-3.638600
 30
0.0
  0
SPLINE
  5
17a
100
AcDbEntity
  8
green
 62
3
100
AcDbSpline
 70
8
 71
3
 72
8
 73
4
 74
0
 40
0
 40
0
 40
0
 40
0
 40
1
 40
1
 40
1
 40
1
 10
81.071156
 20
-3.638600
 30
0.0
 10
80.748249
 20
-3.452169
 30
0.0
 10
80.549331
 20
-3.107633
 30
0.0
 10
80.549331
 20
-2.734772
 30
0.0
  0
SPLINE
  5
17b
100
AcDbEntity
  8
green
 62
3
100
AcDbSpline
 70
8
 71
3
 72
8
 73
4
 74
0
 40
0
 40
0
 40
0
 40
0
 40
1
 40
1
 40
1
 40
1
 10
80.549331
 20
-2.734772
 30
0.0
 10
80.549331
 20
-2.361912
 30
0.0
 10
80.748249
 20
-2.017375
 30
0.0
 10
81.071156
 20
-1.830945
 30
0.0
  0
SPLINE
  5
17c
100
AcDbEntity
  8
green
 62
3
100
AcDbSpline
 70
8
 71
3
 72
8
 73
4
 74
0
 40
0
 40
0
 40
0
 40
0
 40
1
 40
1
 40
1
 40
1
 10
81.071156
 20
-1.830945
 30
0.0
 10
81.394062
 20
-1.644515
 30
0.0
 10
81.791899
 20
-1.644515
 30
0.0
 10
82.114805
 20
-1.830945
 30
0.0
  0
SPLINE
  5
17d
100
AcDbEntity
  8
green
 62
3
100
AcDbSpline
 70
8
 71
3
 72
8
 73
4
 74
0
 40
0
 40
0
 40
0
 40
0
 40
1
 40
1
 40
1
 40
1
 10
82.114805
 20
-1.830945
 30
0.0
 10
82.437711
 20
-2.017375
 30
0.0
 10
82.636630
 20
-2.361912
 30
0.0
 10
82.636630
 20
-2.734772
 30
0.0
  0
LWPOLYLINE
  5
17e
100
AcDbEntity
  8
green
 62
3
100
AcDbPolyline
 90
1
 70
1
 10
22.993725
 20
-2.354268
 30
0.0
  0
SPLINE
  5
17f
100
AcDbEntity
  8
green
 62
3
100
AcDbSpline
 70
8
 71
3
 72
8
 73
4
 74
0
 40
0
 40
0
 40
0
 40
0
 40
1
 40
1
 40
1
 40
1
 10
87.187363
 20
-89.478449
 30
0.0
 10
87.187363
 20
-89.851309
 30
0.0
 10
86.988445
 20
-90.195846
 30
0.0
 10
86.665539
 20
-90.382276
 30
0.0
  0
SPLINE
  5
180
100
AcDbEntity
  8
green
 62
3
100
AcDbSpline
 70
8
 71
3
 72
8
 73
4
 74
0
 40
0
 40
0
 40
0
 40
0
 40
1
 40
1
 40
1
 40
1
 10
86.665539
 20
-90.382276
 30
0.0
 10
86.342632
 20
-90.568706
 30
0.0
 10
85.944795
 20
-90.568706
 30
0.0
 10
85.621889
 20
-90.382276
 30
0.0
  0
SPLINE
  5
181
100
AcDbEntity
  8
green
 62
3
100
AcDbSpline
 70
8
 71
3
 72
8
 73
4
 74
0
 40
0
 40
0
 40
0
 40
0
 40
1
 40
1
 40
1
 40
1
 10
85.621889
 20
-90.382276
 30
0.0
 10
85.298983
 20
-90.195846
 30
0.0
 10
85.100064
 20
-89.851309
 30
0.0
 10
85.100064
 20
-89.478449
 30
0.0
  0
SPLINE
  5
182
100
AcDbEntity
  8
green
 62
3
100
AcDbSpline
 70
8
 71
3
 72
8
 73
4
 74
0
 40
0
 40
0
 40
0
 40
0
 40
1
 40
1
 40
1
 40
1
 10
85.100064
 20
-89.478449
 30
0.0
 10
85.100064
 20
-89.105589
 30
0.0
 10
85.298983
 20
-88.761052
 30
0.0
 10
85.621889
 20
-88.574622
 30
0.0
  0
SPLINE
  5
183
100
AcDbEntity
  8
green
 62
3
100
AcDbSpline
 70
8
 71
3
 72
8
 73
4
 74
0
 40
0
 40
0
 40
0
 40
0
 40
1
 40
1
 40
1
 40
1
 10
85.621889
 20
-88.574622
 30
0.0
 10
85.944795
 20
-88.388192
 30
0.0
 10
86.342632
 20
-88.388192
 30
0.0
 10
86.665539
 20
-88.574622
 30
0.0
  0
SPLINE
  5
184
100
AcDbEntity
  8
green
 62
3
100
AcDbSpline
 70
8
 71
3
 72
8
 73
4
 74
0
 40
0
 40
0
 40
0
 40
0
 40
1
 40
1
 40
1
 40
1
 10
86.665539
 20
-88.574622
 30
0.0
 10
86.988445
 20
-88.761052
 30
0.0
 10
87.187363
 20
-89.105589
 30
0.0
 10
87.187363
 20
-89.478449
 30
0.0
  0
LWPOLYLINE
  5
185
100
AcDbEntity
  8
green
 62
3
100
AcDbPolyline
 90
1
 70
1
 10
82.636630
 20
-2.734772
 30
0.0
  0
SPLINE
  5
186
100
AcDbEntity
  8
green
 62
3
100
AcDbSpline
 70
8
 71
3
 72
8
 73
4
 74
0
 40
0
 40
0
 40
0
 40
0
 40
1
 40
1
 40
1
 40
1
 10
58.978813
 20
-61.053999
 30
0.0
 10
58.978813
 20
-61.426859
 30
0.0
 10
58.779894
 20
-61.771396
 30
0.0
 10
58.456988
 20
-61.957826
 30
0.0
  0
SPLINE
  5
187
100
AcDbEntity
  8
green
 62
3
100
AcDbSpline
 70
8
 71
3
 72
8
 73
4
 74
0
 40
0
 40
0
 40
0
 40
0
 40
1
 40
1
 40
1
 40
1
 10
58.456988
 20
-61.957826
 30
0.0
 10
58.134082
 20
-62.144256
 30
0.0
 10
57.736245
 20
-62.144256
 30
0.0
 10
57.413339
 20
-61.957826
 30
0.0
  0
SPLINE
  5
188
100
AcDbEntity
  8
green
 62
3
100
AcDbSpline
 70
8
 71
3
 72
8
 73
4
 74
0
 40
0
 40
0
 40
0
 40
0
 40
1
 40
1
 40
1
 40
1
 10
57.413339
 20
-61.957826
 30
0.0
 10
57.090432
 20
-61.771396
 30
0.0
 10
56.891514
 20
-61.426859
 30
0.0
 10
56.891514
 20
-61.053999
 30
0.0
  0
SPLINE
  5
189
100
AcDbEntity
  8
green
 62
3
100
AcDbSpline
 70
8
 71
3
 72
8
 73
4
 74
0
 40
0
 40
0
 40
0
 40
0
 40
1
 40
1
 40
1
 40
1
 10
56.891514
 20
-61.053999
 30
0.0
 10
56.891514
 20
-60.681139
 30
0.0
 10
57.090432
 20
-60.336602
 30
0.0
 10
57.413339
 20
-60.150172
 30
0.0
  0
SPLINE
  5
18a
100
AcDbEntity
  8
green
 62
3
100
AcDbSpline
 70
8
 71
3
 72
8
 73
4
 74
0
 40
0
 40
0
 40
0
 40
0
 40
1
 40
1
 40
1
 40
1
 10
57.413339
 20
-60.150172
 30
0.0
 10
57.736245
 20
-59.963742
 30
0.0
 10
58.134082
 20
-59.963742
 30
0.0
 10
58.456988
 20
-60.150172
 30
0.0
  0
SPLINE
  5
18b
100
AcDbEntity
  8
green
 62
3
100
AcDbSpline
 70
8
 71
3
 72
8
 73
4
 74
0
 40
0
 40
0
 40
0
 40
0
 40
1
 40
1
 40
1
 40
1
 10
58.456988
 20
-60.150172
 30
0.0
 10
58.779894
 20
-60.336602
 30
0.0
 10
58.978813
 20
-60.681139
 30
0.0
 10
58.978813
 20
-61.053999
 30
0.0
  0
LWPOLYLINE
  5
18c
100
AcDbEntity
  8
green
 62
3
100
AcDbPolyline
 90
1
 70
1
 10
87.187363
 20
-89.478449
 30
0.0
  0
SPLINE
  5
18d
100
AcDbEntity
  8
green
 62
3
100
AcDbSpline
 70
8
 71
3
 72
8
 73
4
 74
0
 40
0
 40
0
 40
0
 40
0
 40
1
 40
1
 40
1
 40
1
 10
15.589809
 20
-63.654560
 30
0.0
 10
15.589809
 20
-64.027420
 30
0.0
 10
15.390891
 20
-64.371957
 30
0.0
 10
15.067985
 20
-64.558387
 30
0.0
  0
SPLINE
  5
18e
100
AcDbEntity
  8
green
 62
3
100
AcDbSpline
 70
8
 71
3
 72
8
 73
4
 74
0
 40
0
 40
0
 40
0
 40
0
 40
1
 40
1
 40
1
 40
1
 10
15.067985
 20
-64.558387
 30
0.0
 10
14.745078
 20
-64.744817
 30
0.0
 10
14.347241
 20
-64.744817
 30
0.0
 10
14.024335
 20
-64.558387
 30
0.0
  0
SPLINE
  5
18f
100
AcDbEntity
  8
green
 62
3
100
AcDbSpline
 70
8
 71
3
 72
8
 73
4
 74
0
 40
0
 40
0
 40
0
 40
0
 40
1
 40
1
 40
1
 40
1
 10
14.024335
 20
-64.558387
 30
0.0
 10
13.701429
 20
-64.371957
 30
0.0
 10
13.502510
 20
-64.027420
 30
0.0
 10
13.502510
 20
-63.654560
 30
0.0
  0
SPLINE
  5
190
100
AcDbEntity
  8
green
 62
3
100
AcDbSpline
 70
8
 71
3
 72
8
 73
4
 74
0
 40
0
 40
0
 40
0
 40
0
 40
1
 40
1
 40
1
 40
1
 10
13.502510
 20
-63.654560
 30
0.0
 10
13.502510
 20
-63.281700
 30
0.0
 10
13.701429
 20
-62.937163
 30
0.0
 10
14.024335
 20
-62.750733
 30
0.0
  0
SPLINE
  5
191
100
AcDbEntity
  8
green
 62
3
100
AcDbSpline
 70
8
 71
3
 72
8
 73
4
 74
0
 40
0
 40
0
 40
0
 40
0
 40
1
 40
1
 40
1
 40
1
 10
14.024335
 20
-62.750733
 30
0.0
 10
14.347241
 20
-62.564303
 30
0.0
 10
14.745078
 20
-62.564303
 30
0.0
 10
15.067985
 20
-62.750733
 30
0.0
  0
SPLINE
  5
192
100
AcDbEntity
  8
green
 62
3
100
AcDbSpline
 70
8
 71
3
 72
8
 73
4
 74
0
 40
0
 40
0
 40
0
 40
0
 40
1
 40
1
 40
1
 40
1
 10
15.067985
 20
-62.750733
 30
0.0
 10
15.390891
 20
-62.937163
 30
0.0
 10
15.589809
 20
-63.281700
 30
0.0
 10
15.589809
 20
-63.654560
 30
0.0
  0
LWPOLYLINE
  5
193
100
AcDbEntity
  8
green
 62
3
100
AcDbPolyline
 90
1
 70
1
 10
58.978813
 20
-61.053999
 30
0.0
  0
LWPOLYLINE
  5
194
100
AcDbEntity
  8
green
 62
3
100
AcDbPolyline
 90
1
 70
1
 10
15.589809
 20
-63.654560
 30
0.0
  0
ENDSEC
  0
SECTION
  2
OBJECTS
  0
DICTIONARY
  5
C
330
0
100
AcDbDictionary
  3
ACAD_GROUP
350
D
  3
ACAD_MLINESTYLE
350
17
  0
DICTIONARY
  5
D
330
C
100
AcDbDictionary
  0
DICTIONARY
  5
1A
330
C
100
AcDbDictionary
  0
DICTIONARY
  5
17
330
C
100
AcDbDictionary
  3
STANDARD
350
18
  0
DICTIONARY
  5
19
330
C
100
AcDbDictionary
  0
ENDSEC
  0
EOF
